<?xml version="1.0" encoding="UTF-8" standalone="no"?>
<svg
   xmlns:dc="http://purl.org/dc/elements/1.1/"
   xmlns:cc="http://creativecommons.org/ns#"
   xmlns:rdf="http://www.w3.org/1999/02/22-rdf-syntax-ns#"
   xmlns:svg="http://www.w3.org/2000/svg"
   xmlns="http://www.w3.org/2000/svg"
   xmlns:xlink="http://www.w3.org/1999/xlink"
   xmlns:sodipodi="http://sodipodi.sourceforge.net/DTD/sodipodi-0.dtd"
   xmlns:inkscape="http://www.inkscape.org/namespaces/inkscape"
   width="100"
   height="30"
   viewBox="0 0 26.458334 7.9375002"
   version="1.1"
   id="svg8"
   sodipodi:docname="isketch2 - color.svg"
   inkscape:version="1.0 (4035a4fb49, 2020-05-01)">
  <defs
     id="defs2">
    <linearGradient
       id="linearGradient937"
       inkscape:collect="always">
      <stop
         id="stop933"
         offset="0"
         style="stop-color:#080827;stop-opacity:1" />
      <stop
         id="stop935"
         offset="1"
         style="stop-color:#553475;stop-opacity:0" />
    </linearGradient>
    <linearGradient
       inkscape:collect="always"
       xlink:href="#linearGradient937"
       id="linearGradient931"
       x1="9.778348"
       y1="22.240009"
       x2="21.820911"
       y2="7.0896931"
       gradientUnits="userSpaceOnUse"
       gradientTransform="matrix(0.88674343,0,0.03564616,0.99413566,1.6017913,0.40862198)" />
  </defs>
  <sodipodi:namedview
     id="base"
     pagecolor="#ffffff"
     bordercolor="#666666"
     borderopacity="1.0"
     inkscape:pageopacity="0.0"
     inkscape:pageshadow="2"
     inkscape:zoom="1.2612224"
     inkscape:cx="39.122252"
     inkscape:cy="172.17354"
     inkscape:document-units="mm"
     inkscape:current-layer="svg8"
     inkscape:document-rotation="0"
     showgrid="false"
     units="px"
     inkscape:window-width="1920"
     inkscape:window-height="1057"
     inkscape:window-x="1912"
     inkscape:window-y="-8"
     inkscape:window-maximized="1"
     showguides="false" />
  <metadata
     id="metadata5">
    <rdf:RDF>
      <cc:Work
         rdf:about="">
        <dc:format>image/svg+xml</dc:format>
        <dc:type
           rdf:resource="http://purl.org/dc/dcmitype/StillImage" />
        <dc:title />
      </cc:Work>
    </rdf:RDF>
  </metadata>
  <g
     transform="matrix(1.7188838,0.42644405,-0.34571731,0.69810869,12.776453,-8.5485347)"
     clip-path="none"
     id="g969">
    <rect
       style="fill:#ffffff;fill-opacity:1;stroke:none;stroke-width:2.75467;stroke-miterlimit:4;stroke-dasharray:none"
       id="rect1235"
       width="26.458334"
       height="26.458334"
       x="-6.0249553"
       y="-0.89826602"
       ry="0" />
    <g
       id="g1247"
       style="opacity:0.772436">
      <path
         id="rect14"
         style="display:inline;opacity:1;fill:#205e78;fill-opacity:1;fill-rule:evenodd;stroke-width:0.84753;stroke-dashoffset:88.7603;paint-order:fill markers stroke"
         d="M -23.863621,39.270906 26.262744,-5.7380345 c 0,0 6.917229,3.575298 6.377289,6.50245743 C 31.866952,4.9554895 23.91984,3.5553791 20.729891,6.5211775 15.228731,11.635782 15.541804,21.048386 9.7685949,25.880682 c -5.018203,4.200341 -13.5452584,2.74888 -18.6977354,6.797652 -4.1578625,3.267209 -3.2024325,12.594271 -8.5571915,13.095027 -3.091763,0.289131 -6.377289,-6.502455 -6.377289,-6.502455 z"
         sodipodi:nodetypes="ccaaaaac" />
      <path
         sodipodi:nodetypes="ccaaaaac"
         d="m -24.304167,29.372256 54.26365,-39.923847 c 0,0 6.53698,4.2306854 5.715094,7.0915067 -1.176769,4.09608595 -8.950172,1.93019 -12.413277,4.5719026 -5.972225,4.5557064 -6.575486,13.9541767 -12.791031,18.2024687 -5.4026944,3.692716 -13.7483031,1.419345 -19.2699047,4.948158 -4.4557313,2.847618 -4.4113613,12.223383 -9.7894393,12.201316 -3.105226,-0.01274 -5.715092,-7.091505 -5.715092,-7.091505 z"
         style="opacity:1;fill:#3baeca;fill-opacity:1;fill-rule:evenodd;stroke-width:0.847529;stroke-dashoffset:88.7603;paint-order:fill markers stroke"
         id="rect14-5-3-5-1-6-5-2" />
      <path
         sodipodi:nodetypes="ccaaaaac"
         d="M -21.041608,29.655721 29.084758,-15.35322 c 0,0 6.917229,3.575298 6.377289,6.5024571 -0.773081,4.1910673 -8.720193,2.790957 -11.910142,5.7567553 -5.501161,5.114605 -5.188088,14.5272106 -10.961296,19.3595046 -5.0182043,4.200343 -13.54525923,2.748881 -18.6977372,6.797654 -4.1578628,3.267208 -3.2024334,12.59427 -8.5571918,13.095026 -3.091762,0.289131 -6.377288,-6.502456 -6.377288,-6.502456 z"
         style="opacity:1;fill:#b12f9e;fill-opacity:1;fill-rule:evenodd;stroke-width:0.847529;stroke-dashoffset:88.7603;paint-order:fill markers stroke"
         id="rect14-5-3-5-1-6" />
      <path
         id="rect14-5-3-5-1"
         style="opacity:1;fill:#323232;fill-opacity:1;fill-rule:evenodd;stroke-width:0.847529;stroke-dashoffset:88.7603;paint-order:fill markers stroke"
         d="m -17.368385,25.920957 50.126366,-45.00894 c 0,0 6.917229,3.575299 6.377289,6.502458 -0.773081,4.1910667 -8.720193,2.7909571 -11.910142,5.7567547 -5.501161,5.1146053 -5.188088,14.5272092 -10.961296,19.3595033 -5.018204,4.200343 -13.5452591,2.748881 -18.6977372,6.797654 -4.157863,3.267208 -3.202433,12.59427 -8.5571918,13.095026 -3.091762,0.289131 -6.377288,-6.502456 -6.377288,-6.502456 z"
         sodipodi:nodetypes="ccaaaaac" />
      <path
         sodipodi:nodetypes="ccaaaaac"
         d="m -18.625921,22.286076 50.126366,-45.008939 c 0,0 6.917229,3.575298 6.377289,6.502457 -0.773081,4.191066 -8.720193,2.790957 -11.910142,5.756754 C 20.46643,-5.3490465 20.779503,4.063558 15.006295,8.8958518 9.9880912,13.096195 1.4610367,11.644733 -3.6914413,15.693506 c -4.1578627,3.267208 -3.2024327,12.59427 -8.5571917,13.095026 -3.091762,0.289131 -6.377288,-6.502456 -6.377288,-6.502456 z"
         style="opacity:1;fill:#206978;fill-opacity:1;fill-rule:evenodd;stroke-width:0.847529;stroke-dashoffset:88.7603;paint-order:fill markers stroke"
         id="rect14-5-3-5" />
      <path
         sodipodi:nodetypes="ccaaaaac"
         d="m -23.933647,25.260343 50.126367,-45.00894 c 0,0 6.917229,3.575297 6.377289,6.502457 -0.773081,4.191068 -8.720193,2.790957 -11.910142,5.756756 C 15.158706,-2.37478 15.471779,7.0378246 9.6985716,11.870119 4.6803672,16.070462 -3.8466878,14.619 -8.9991658,18.667773 c -4.1578632,3.267208 -3.2024332,12.59427 -8.5571932,13.095026 -3.091762,0.289131 -6.377288,-6.502456 -6.377288,-6.502456 z"
         style="opacity:1;fill:#4c5482;fill-opacity:1;fill-rule:evenodd;stroke-width:0.847529;stroke-dashoffset:88.7603;paint-order:fill markers stroke"
         id="rect14-5-3-5-1-6-5-6" />
      <path
         id="rect14-5-3-5-1-6-5"
         style="opacity:1;fill:#ca3b3b;fill-opacity:1;fill-rule:evenodd;stroke-width:0.847529;stroke-dashoffset:88.7603;paint-order:fill markers stroke"
         d="m -28.862641,27.219482 50.126366,-45.00894 c 0,0 6.917229,3.575298 6.377289,6.502458 -0.773081,4.1910682 -8.720193,2.7909582 -11.910142,5.7567577 -5.50116,5.11460361 -5.188087,14.5272087 -10.9612954,19.3595003 -5.01820365,4.200343 -13.545259,2.748881 -18.6977376,6.797654 -4.157863,3.267208 -3.202433,12.59427 -8.557192,13.095026 -3.091762,0.289131 -6.377288,-6.502456 -6.377288,-6.502456 z"
         sodipodi:nodetypes="ccaaaaac" />
      <path
         sodipodi:nodetypes="ccaaaaac"
         d="m -29.537626,24.783109 50.126366,-45.00894 c 0,0 6.917229,3.575298 6.377289,6.502457 -0.773081,4.1910669 -8.720193,2.790957 -11.910142,5.7567549 C 9.554727,-2.8520143 9.8678,6.560591 4.094592,11.392885 c -5.01820339,4.200343 -13.5452599,2.748881 -18.697738,6.797654 -4.157863,3.267208 -3.202433,12.59427 -8.557192,13.095026 -3.091762,0.289131 -6.377288,-6.502456 -6.377288,-6.502456 z"
         style="opacity:1;fill:#ae8d0b;fill-opacity:1;fill-rule:evenodd;stroke-width:0.847529;stroke-dashoffset:88.7603;paint-order:fill markers stroke"
         id="rect14-5" />
      <path
         id="rect14-5-3"
         style="opacity:1;fill:#207823;fill-opacity:1;fill-rule:evenodd;stroke-width:0.847529;stroke-dashoffset:88.7603;paint-order:fill markers stroke"
         d="m -33.585747,28.345739 50.126366,-45.00894 c 0,0 6.917229,3.575298 6.377289,6.502457 -0.773081,4.1910668 -8.720193,2.7909558 -11.910142,5.7567548 C 5.5066055,0.71061588 5.8196785,10.123221 0.04646992,14.955515 -4.971734,19.155858 -13.498789,17.704396 -18.651267,21.753169 c -4.157863,3.267208 -3.202433,12.59427 -8.557192,13.095026 -3.091762,0.289131 -6.377288,-6.502456 -6.377288,-6.502456 z"
         sodipodi:nodetypes="ccaaaaac" />
    </g>
  </g>
</svg>
