<?xml version="1.0" encoding="UTF-8" standalone="no"?>
<!-- Created with Inkscape (http://www.inkscape.org/) -->

<svg
   width="98.346512mm"
   height="13.600965mm"
   viewBox="0 0 98.346512 13.600964"
   version="1.1"
   id="svg1"
   inkscape:version="1.3.2 (091e20e, 2023-11-25, custom)"
   sodipodi:docname="drawing.svg"
   xmlns:inkscape="http://www.inkscape.org/namespaces/inkscape"
   xmlns:sodipodi="http://sodipodi.sourceforge.net/DTD/sodipodi-0.dtd"
   xmlns:xlink="http://www.w3.org/1999/xlink"
   xmlns="http://www.w3.org/2000/svg"
   xmlns:svg="http://www.w3.org/2000/svg">
  <sodipodi:namedview
     id="namedview1"
     pagecolor="#ffffff"
     bordercolor="#000000"
     borderopacity="0.25"
     inkscape:showpageshadow="2"
     inkscape:pageopacity="0.0"
     inkscape:pagecheckerboard="0"
     inkscape:deskcolor="#d1d1d1"
     inkscape:document-units="mm"
     inkscape:zoom="2.955623"
     inkscape:cx="-2.5375361"
     inkscape:cy="12.349342"
     inkscape:window-width="2560"
     inkscape:window-height="1369"
     inkscape:window-x="-8"
     inkscape:window-y="-8"
     inkscape:window-maximized="1"
     inkscape:current-layer="layer1" />
  <defs
     id="defs1">
    <inkscape:path-effect
       effect="bend_path"
       id="path-effect11"
       is_visible="true"
       lpeversion="1"
       bendpath="m 37.278914,88.668105 c 50.041396,-7.828356 40.344748,7.139594 98.974596,0"
       prop_scale="1"
       scale_y_rel="false"
       vertical="false"
       hide_knot="false"
       bendpath-nodetypes="cc" />
    <inkscape:path-effect
       effect="bend_path"
       id="path-effect10"
       is_visible="true"
       lpeversion="1"
       bendpath="m 37.713018,88.647648 c 45.732923,-7.538993 46.040908,7.383792 97.950992,0"
       prop_scale="1"
       scale_y_rel="false"
       vertical="false"
       hide_knot="false"
       bendpath-nodetypes="cc" />
    <inkscape:path-effect
       effect="bend_path"
       id="path-effect8"
       is_visible="true"
       lpeversion="1"
       bendpath="m 37.713018,88.647648 c 4.111941,-1.369648 13.625457,-2.623169 23.312535,-2.16105 12.65954,0.603919 26.242789,3.24177 34.809485,3.300436 17.919232,0.122714 18.301352,-3.351169 39.828972,-1.139386"
       prop_scale="1"
       scale_y_rel="false"
       vertical="false"
       hide_knot="false"
       bendpath-nodetypes="cssc" />
    <inkscape:path-effect
       effect="skeletal"
       id="path-effect7"
       is_visible="true"
       lpeversion="1"
       pattern="M 0,0 H 1"
       copytype="single_stretched"
       prop_scale="1"
       scale_y_rel="false"
       spacing="0"
       normal_offset="0"
       tang_offset="0"
       prop_units="false"
       vertical_pattern="false"
       hide_knot="false"
       fuse_tolerance="0" />
    <linearGradient
       id="linearGradient1"
       inkscape:collect="always">
      <stop
         style="stop-color:#ffe821;stop-opacity:1;"
         offset="0"
         id="stop1" />
      <stop
         style="stop-color:#c79200;stop-opacity:1;"
         offset="1"
         id="stop2" />
    </linearGradient>
    <filter
       inkscape:collect="always"
       style="color-interpolation-filters:sRGB"
       id="filter1"
       x="-0.00012340717"
       y="0"
       width="1.0002468"
       height="1">
      <feGaussianBlur
         inkscape:collect="always"
         stdDeviation="0.005 0"
         id="feGaussianBlur1" />
    </filter>
    <linearGradient
       inkscape:collect="always"
       xlink:href="#linearGradient1"
       id="linearGradient2"
       x1="108.94479"
       y1="84.56485"
       x2="108.94479"
       y2="93.838188"
       gradientUnits="userSpaceOnUse"
       gradientTransform="translate(-0.5696931,-0.50639387)" />
    <filter
       inkscape:collect="always"
       style="color-interpolation-filters:sRGB"
       id="filter1-4"
       x="-2.44047e-05"
       y="-0.00088385005"
       width="1.0000488"
       height="1.0017677">
      <feGaussianBlur
         inkscape:collect="always"
         stdDeviation="0.001 0.005"
         id="feGaussianBlur1-0" />
    </filter>
  </defs>
  <g
     inkscape:label="Layer 1"
     inkscape:groupmode="layer"
     id="layer1"
     transform="translate(-37.3447,-81.216213)">
    <path
       id="text1-0"
       style="font-size:11.2889px;font-family:Forte;-inkscape-font-specification:Forte;opacity:1;fill:#674a00;fill-opacity:1;stroke-width:0.265;filter:url(#filter1-4)"
       d="m 87.360463,83.453769 c -1.235318,-0.103672 -1.708673,1.295513 -2.137889,2.221308 -0.170508,0.30023 -0.779154,-0.10539 -1.121626,0.147638 -0.0428,0.01096 -0.08531,0.02266 -0.127543,0.03507 0,0 0,0 0,0 -1.068695,0.30637 -1.94624,1.068227 -2.568077,1.9638 0.288375,-0.749735 0.21468,-1.926427 -0.781053,-2.072966 -0.575996,-0.171382 -1.191086,0.148718 -1.625978,0.42647 0.244812,-0.851477 -0.608887,-1.680374 -1.477626,-1.39657 -0.930234,0.3059 -1.347837,1.271677 -1.761681,2.062254 0.277367,-0.722139 -0.104676,-1.840345 -1.055589,-1.662084 -0.633335,0.11192 -1.143425,0.536489 -1.64315,0.90032 0.50755,-0.801231 0.156617,-2.09881 -0.93209,-2.176226 -1.288219,-0.18721 -1.991843,1.085804 -2.36213,2.066011 -0.0557,-0.669387 -0.409931,-1.352088 -1.024287,-1.678227 0.182416,-0.828217 -0.945979,-0.955343 -1.572945,-0.919474 -0.519226,0.0091 -1.021704,0.129841 -1.486538,0.334175 0,0 0,10e-7 0,10e-7 -1.133651,0.505149 -2.023961,1.497538 -2.460123,2.558977 -0.256837,-0.323818 -1.118502,0.09519 -0.893495,-0.462484 -0.131264,-0.687156 0.386895,-0.645834 0.764048,-1.00967 0.487823,-0.841558 0.690539,-1.893122 0.54093,-2.849346 -0.255147,-0.965345 -1.628319,-0.868862 -2.179915,-0.207914 -1.494457,1.644088 -1.915998,3.928016 -2.23045,6.019326 -0.096,1.159715 -0.287086,2.349406 -0.04044,3.491946 0.546887,1.0251 2.434189,0.758213 2.532288,-0.500023 0.147186,-0.69208 0.19955,-1.395091 0.253661,-2.10048 0.441652,-0.03684 0.885305,-0.225521 1.167093,-0.58396 0.288097,1.087416 1.331975,1.658156 2.379589,1.801338 0.395471,0.05335 0.795768,0.04579 1.161334,-0.02036 0.900392,-0.202862 1.813874,-0.659369 2.397702,-1.433801 -0.242392,0.847367 0.348263,1.968153 1.292444,1.765929 0.729769,-0.161017 1.361242,-0.620986 2.008005,-1.004215 0.09482,1.268943 1.693658,1.724622 2.660387,1.155071 0.376348,0.86937 1.642164,0.913657 2.149322,0.129089 0.278558,-0.154858 0.892302,-1.091946 0.962488,-0.676451 0.0272,1.012436 1.003469,1.924515 2.016693,1.567074 0.454041,-0.216194 0.725317,-0.322062 1.001152,0.174284 0.564349,0.42521 1.219764,0.341688 1.842244,0.101111 0.39466,-0.148386 0.773436,-0.35891 1.106355,-0.546768 -0.02914,0.79688 0.733062,1.434481 1.531631,1.193718 0.582039,-0.101229 1.116391,-0.354778 1.644875,-0.599717 -0.351069,-1.969632 -0.03962,-3.988864 0.697474,-5.831984 0.218542,-0.597192 0.527732,-1.163745 0.791424,-1.740375 -0.362971,-0.454675 -0.85515,-0.62482 -1.418514,-0.641818 z m 42.699117,0.3859 c -1.22853,0.221114 -1.3229,1.69485 -1.49756,2.700083 -0.0876,0.333172 -0.7805,0.102792 -1.04661,0.434013 -1.0069,0.568353 -1.69953,1.574648 -2.09317,2.647808 0.0812,-0.849218 0.21333,-2.146458 -0.75433,-2.532856 -0.44006,-0.207526 -0.76692,0.338056 -1.17185,0.06223 -1.02197,-0.121573 -1.55969,0.988823 -1.70716,1.843236 -0.20011,-0.457659 -0.5913,-0.845702 -1.04717,-1.024921 0.0634,-0.838067 -1.02371,-0.82935 -1.60747,-0.726514 -1.36999,0.189344 -2.55831,1.170371 -3.23606,2.363642 0.0896,-0.740861 -0.003,-1.939 -0.9952,-1.910944 -0.62306,0.08386 -1.23014,0.487709 -1.49376,1.073082 0.008,-0.804443 -0.84858,-1.23874 -1.54869,-0.996617 -0.8707,0.08871 -1.10041,1.034478 -1.3499,1.728288 0.0601,-0.693452 -0.18537,-1.672962 -1.05421,-1.591861 -0.98655,-0.08731 -1.80937,0.771938 -1.78847,1.752172 -0.0175,1.415312 0.1447,2.953138 0.95039,4.163512 0.63398,0.807604 1.88227,0.354561 2.27002,-0.4527 0.27906,-0.633077 0.37129,-0.294538 0.57497,0.201872 0.41977,1.005616 1.85412,1.695842 2.77148,0.855445 0.64636,-0.656426 0.92992,-1.639943 1.22129,-2.420063 0.31233,1.582543 2.29316,2.10138 3.71129,1.765666 0.89263,-0.230654 1.7257,-0.739368 2.28009,-1.46608 -0.0323,0.844875 0.81147,1.61839 1.66602,1.242491 0.89206,-0.296176 1.35592,-1.228709 1.22693,-2.115081 -0.0815,-0.471315 0.72599,-0.333711 0.80763,-0.869002 -0.25291,1.019438 0.0588,2.596393 1.36136,2.779122 0.98132,0.08023 1.73834,-0.682222 2.38348,-1.301451 0.17779,0.779823 1.07856,1.194012 1.78447,0.756635 0.41428,-0.198008 0.7895,-0.466357 1.13612,-0.761496 0.37967,0.966485 1.6915,0.628436 2.23728,-0.0056 0.47959,-0.566534 0.85282,-1.650333 0.21346,-2.223273 0.62305,-0.833862 0.68357,-1.953792 1.01985,-2.916657 0.13636,-0.817505 0.60225,-1.674327 0.31032,-2.496006 -0.6641,-0.695144 -1.75495,-0.160543 -2.3859,0.330569 -0.74504,0.734973 -0.66674,1.902849 -0.91276,2.858775 -0.0505,0.85759 -0.47514,1.796646 -0.10495,2.61544 0.0654,0.180504 -0.33562,0.891665 -0.37633,0.824943 -0.88731,-2.198776 -0.69276,-4.671059 -0.20221,-6.936441 -0.4754,-0.341232 -0.99837,-0.381545 -1.55269,-0.251451 z m -31.326037,1.350303 c -1.571344,-0.02895 -2.511946,1.546166 -3.246686,2.781689 -0.639873,1.039754 -1.207833,2.27364 -1.483538,3.400709 -0.190112,-0.319057 -0.99182,-0.08588 -0.745451,-0.687686 0.194036,-0.401001 0.04089,-1.202046 0.522263,-1.32068 0.918897,-0.06993 1.684462,-1.476856 0.850765,-2.089137 -0.300294,-0.222474 0.328726,-0.720532 0.362859,-1.056604 0.418789,-0.822625 -0.532185,-1.556567 -1.275583,-1.283409 -0.989855,0.141386 -1.500712,1.108641 -1.91219,1.936785 -0.817234,0.206944 -1.577727,1.299365 -0.976261,2.060986 -0.442006,1.077048 -1.173484,2.489573 -0.256617,3.541271 0.883518,1.030906 2.578471,0.646021 3.375462,-0.276614 -0.06888,0.772826 0.632986,1.619406 1.478938,1.28633 0.64516,-0.140876 1.281678,-0.764879 1.711906,-0.985351 0.06825,0.959687 1.108627,1.644558 2.049331,1.26652 0.420847,-0.0055 0.825089,-0.649088 1.124089,-0.229282 0.77377,0.64662 1.7667,0.605158 2.66844,0.270032 0.53458,-0.201267 1.0351,-0.504804 1.44666,-0.82457 0.55655,-0.31719 1.24431,-1.129012 0.51028,-1.636202 -0.50681,-0.165242 0.25858,-0.610759 0.25329,-0.961571 0.4843,-1.014842 0.0168,-2.547306 -1.20852,-2.649153 -0.27149,-0.02268 -0.53762,-0.0061 -0.79608,0.04376 0,0 0,0 0,0 -1.21657,0.238414 -2.29368,1.229979 -2.88755,2.332214 0.16235,-0.533491 0.062,-1.235206 -0.477129,-1.505048 0.812959,-0.865596 0.893489,-2.490992 -0.191876,-3.133792 -0.264264,-0.182157 -0.584246,-0.257236 -0.896802,-0.281197 z m -59.36368,-1.994988 c -0.916469,0.261457 -2.151782,0.88882 -2.01185,1.995261 0.259295,2.072616 1.307286,3.986458 2.570338,5.619026 -0.588083,0.391296 -1.529099,0.19992 -1.757013,1.060608 -0.300264,0.633805 -0.589527,1.728763 0.293388,2.028025 1.359796,0.261329 2.627575,-0.764517 3.335052,-1.854322 1.454649,-2.347794 2.22023,-5.03367 3.08583,-7.657567 0.22452,-0.549516 0.421524,-1.487595 -0.388921,-1.632956 -1.115385,0.06933 -1.935922,1.105438 -2.31691,2.055139 -0.333746,0.948649 -0.458042,1.951304 -0.751681,2.909612 -0.510269,-1.366985 -0.671333,-2.845667 -1.189194,-4.20147 -0.191864,-0.276604 -0.538676,-0.391143 -0.869035,-0.321357 -10e-7,0 -3e-6,0 -4e-6,1e-6 z m 8.216831,0.976851 c -2.293753,0.328538 -4.172499,2.790463 -3.579895,5.047856 0.443294,1.543866 2.406735,1.912705 3.741267,1.511979 0.948581,-0.313549 1.852081,-0.948383 2.328917,-1.857887 -0.09343,0.875185 0.68353,1.88547 1.597601,1.516308 0.699968,-0.288556 1.24515,-0.855928 1.814918,-1.349842 0.343206,1.350031 2.374747,1.445536 3.042167,0.358128 0.03713,-0.891302 -0.252651,-1.80015 -0.144,-2.712155 0.04444,-0.734402 0.102053,-1.911119 -0.880457,-2.048659 -0.831051,-0.03737 -1.384256,0.712886 -1.902658,1.237172 0.353786,-0.880358 -0.228614,-2.09133 -1.304645,-1.974569 -1.288251,0.04413 -1.755654,1.416924 -1.952325,2.44822 -0.169326,-0.650701 -0.633247,-1.263648 -1.285754,-1.4845 0.07613,-0.785897 -0.923556,-0.777139 -1.475136,-0.692051 z m -0.464841,2.536317 c 0.72388,0.345836 1.067698,1.61727 0.308808,2.059815 -0.739596,-0.124146 -0.623347,-1.173634 -0.50368,-1.735576 0.04811,-0.08217 0.07618,-0.450145 0.194876,-0.324239 -10e-7,0 -3e-6,0 -4e-6,0 z m 19.395231,-0.908666 c 0.668322,0.453847 0.79694,1.759564 -0.0089,2.080517 -0.70359,-0.234853 -0.436903,-1.251338 -0.233265,-1.789856 0.05987,-0.07376 0.143578,-0.433203 0.242199,-0.290661 -2e-6,0 -3e-6,0 -4e-6,0 z m 52.240446,3.928318 c 0.6922,0.381646 0.99224,1.668483 0.19425,2.070221 -0.7144,-0.137409 -0.55898,-1.133793 -0.43885,-1.66429 0.062,-0.103884 0.10966,-0.521048 0.24464,-0.405933 -2e-5,0 -3e-5,10e-7 -4e-5,2e-6 z"
       sodipodi:nodetypes="scccccccccccccccccccccccccccccccccccccsssccccccccccccccccccccccccccccccccccccccssccccccccccccccccccccccccsccccccccccssccccccccccccccsccsssccssccccc" />
    <path
       style="font-size:11.2889px;font-family:Forte;-inkscape-font-specification:Forte;opacity:1;fill:url(#linearGradient2);stroke-width:0.265;filter:url(#filter1)"
       d="m 40.018286,85.033776 c 0.03545,0.134073 0.07087,0.268153 0.106257,0.40224 0.0247,0.0632 0.05279,0.174212 0.0843,0.333064 0.235144,0.983047 0.501077,1.852572 0.796077,2.607649 0.128958,0.315367 0.272327,0.617513 0.4299,0.906512 0.107642,-0.328028 0.216424,-0.678256 0.326653,-1.050879 0.03951,-0.1395 0.07652,-0.271059 0.111048,-0.394933 0.03454,-0.123919 0.05628,-0.206724 0.06523,-0.248951 0.01271,-0.04303 0.03611,-0.125529 0.07099,-0.249722 0.05152,-0.194477 0.130034,-0.529654 0.239359,-1.014323 0.06729,-0.319291 0.114144,-0.536034 0.136999,-0.637385 0.02694,-0.103608 0.08138,-0.284604 0.163242,-0.540519 0.09573,-0.321318 0.245524,-0.612846 0.449808,-0.874172 0.116238,-0.152968 0.252235,-0.302898 0.40809,-0.449625 0.155855,-0.146729 0.306396,-0.264685 0.451313,-0.353889 0.144914,-0.0892 0.266409,-0.139954 0.364099,-0.152381 0.146596,-0.01865 0.227003,0.02874 0.241257,0.141813 0.01288,0.10218 -0.0098,0.240239 -0.06765,0.414381 -0.142976,0.526896 -0.345767,1.173611 -0.606112,1.946933 -0.256271,0.771733 -0.519727,1.52715 -0.790435,2.265925 -0.267432,0.739324 -0.49484,1.322921 -0.688469,1.756343 -0.154438,0.367487 -0.31241,0.702358 -0.474285,1.004684 -0.303814,0.590749 -0.584874,1.048726 -0.846801,1.374801 -0.26123,0.329524 -0.569317,0.607334 -0.924743,0.834004 -0.185504,0.122001 -0.394056,0.223697 -0.625838,0.305298 -0.173561,0.05744 -0.310081,0.09429 -0.409882,0.110393 -0.181712,0.02931 -0.333114,0.02045 -0.454355,-0.02677 -0.121232,-0.04722 -0.191825,-0.130568 -0.211604,-0.250213 -0.02216,-0.13407 0.007,-0.345689 0.08811,-0.634439 0.08533,-0.285777 0.183952,-0.51591 0.295615,-0.690342 0.07201,-0.101001 0.226637,-0.170688 0.463756,-0.20851 0.258683,-0.04126 0.471128,-0.106314 0.637616,-0.195606 0.117107,-0.0518 0.235591,-0.118584 0.35555,-0.200357 0.119974,-0.08179 0.252558,-0.189551 0.398065,-0.323291 -0.350281,-0.433988 -0.659553,-0.841414 -0.927473,-1.223914 -0.264195,-0.382924 -0.499344,-0.762498 -0.705014,-1.139257 -0.272061,-0.488945 -0.516974,-1.021099 -0.734078,-1.59657 -0.21409,-0.579888 -0.357587,-1.0905 -0.429333,-1.533286 -0.04174,-0.257607 -0.04359,-0.456473 -0.0054,-0.596753 0.03764,-0.143873 0.123716,-0.271414 0.258418,-0.382436 0.194024,-0.168958 0.417799,-0.321917 0.671327,-0.458553 0.252946,-0.14026 0.465718,-0.223456 0.637425,-0.249893 0.145625,-0.02242 0.250502,0.01366 0.314483,0.108033 0.06774,0.09384 0.131635,0.301607 0.1918,0.623467 0.05439,0.233446 0.10259,0.413939 0.144633,0.541426 1e-6,1e-6 2e-6,1e-6 3e-6,2e-6 z m 7.576716,-0.309365 c 0.556386,-0.05997 0.841253,-0.02334 0.85435,0.104279 0.01502,0.146343 -0.101859,0.237539 -0.350159,0.274659 -0.299764,0.04991 -0.571837,0.164347 -0.815355,0.342863 -0.243539,0.178531 -0.452251,0.409321 -0.625894,0.69202 -0.169952,0.282288 -0.292527,0.592763 -0.368239,0.931192 -0.07204,0.338011 -0.08606,0.687728 -0.0431,1.049203 0.04729,0.397933 0.178598,0.708207 0.392437,0.931089 0.2135,0.21932 0.468261,0.311882 0.76546,0.278403 0.275458,-0.03103 0.500647,-0.199962 0.677168,-0.507432 0.176471,-0.307384 0.245567,-0.651086 0.205387,-1.031271 -0.03284,-0.310753 -0.129453,-0.594434 -0.290902,-0.85079 -0.158146,-0.260383 -0.373015,-0.470186 -0.644939,-0.628781 -0.116473,-0.0722 -0.176846,-0.126445 -0.18093,-0.163007 -0.0057,-0.05111 0.06131,-0.138239 0.201516,-0.260926 0.157945,-0.132051 0.338693,-0.24784 0.542194,-0.347127 0.203488,-0.09928 0.378043,-0.156242 0.52303,-0.171157 0.167325,-0.01721 0.329901,0.01069 0.487337,0.08364 0.160798,0.06893 0.306588,0.178359 0.437215,0.328172 0.13028,0.146164 0.234844,0.320757 0.31389,0.523687 0.0824,0.198924 0.134497,0.41549 0.156704,0.649685 0.03678,0.38788 -3.77e-4,0.779013 -0.10973,1.173588 -0.109697,0.390888 -0.27076,0.715081 -0.483009,0.9728 -0.274976,0.326877 -0.61682,0.607852 -1.025833,0.844281 -0.405811,0.232392 -0.800211,0.371055 -1.185694,0.415713 -0.374635,0.0434 -0.755068,0.02219 -1.14264,-0.06358 -0.383969,-0.08621 -0.698214,-0.222371 -0.942817,-0.409792 -0.32655,-0.254596 -0.526171,-0.649435 -0.596176,-1.185369 -0.05524,-0.4229 -0.0067,-0.859576 0.148032,-1.309563 0.154722,-0.449976 0.389644,-0.869178 0.705914,-1.256568 0.319511,-0.391491 0.68583,-0.71159 1.09821,-0.959427 0.415646,-0.251904 0.848627,-0.402202 1.296579,-0.450486 -10e-7,0 -2e-6,0 -3e-6,0 z m 6.21272,3.288337 c -0.02929,0.02773 -0.05857,0.05548 -0.08783,0.08323 -0.01749,0.01223 -0.133502,0.113857 -0.346691,0.305669 -0.413703,0.376516 -0.748577,0.674404 -1.016243,0.89928 -0.266662,0.220127 -0.488702,0.385709 -0.668338,0.496761 -0.179783,0.107291 -0.326952,0.166109 -0.44221,0.176165 -0.194417,0.01696 -0.358138,-0.04951 -0.491714,-0.19979 -0.130261,-0.154224 -0.207626,-0.361213 -0.231393,-0.621056 -0.04015,-0.438964 -0.02173,-0.956028 0.05767,-1.5497 0.07909,-0.597529 0.206427,-1.190056 0.383641,-1.777049 0.194109,-0.651217 0.468462,-1.061368 0.820406,-1.229496 0.122814,-0.06506 0.27045,-0.104274 0.442711,-0.117417 0.235945,-0.018 0.43239,0.03946 0.588619,0.171839 0.156281,0.132422 0.242341,0.316041 0.258951,0.550597 0.01142,0.161266 -0.0045,0.333623 -0.04731,0.517172 -0.04286,0.183628 -0.116378,0.404206 -0.220008,0.662403 -0.01826,0.05476 -0.0365,0.10952 -0.05471,0.164286 -0.267592,0.689322 -0.392817,1.108657 -0.381845,1.250419 0.0065,0.08426 0.03901,0.124113 0.09743,0.119621 0.05479,-0.0042 0.123038,-0.04812 0.204994,-0.131674 0.08216,-0.08376 0.206518,-0.234516 0.375266,-0.453196 0.103521,-0.147279 0.252936,-0.333253 0.448382,-0.55638 0.06348,-0.07247 0.127073,-0.144902 0.19077,-0.217281 0.05484,-0.06627 0.109774,-0.132494 0.164789,-0.198687 0.348831,-0.390804 0.639822,-0.673795 0.86804,-0.848836 0.228277,-0.178918 0.421443,-0.272363 0.577905,-0.28079 0.29857,-0.01608 0.460116,0.231771 0.485856,0.741522 0.0054,0.106514 0.0019,0.295814 -0.01012,0.568706 -0.01742,0.530216 -0.0163,0.97937 0.0025,1.345927 0.0074,0.07317 0.0127,0.140944 0.0159,0.2033 0.0066,0.05851 0.01241,0.135439 0.01729,0.230814 0.03802,0.244228 0.0658,0.432672 0.08333,0.563945 0.03596,0.207794 0.05385,0.311702 0.05385,0.311702 0.0056,0.110096 -0.087,0.212096 -0.277044,0.306788 -0.190072,0.09471 -0.41256,0.149286 -0.668099,0.164267 -0.233943,0.01372 -0.438216,-0.01965 -0.61338,-0.100577 -0.171777,-0.08481 -0.307108,-0.215805 -0.405982,-0.393337 -0.09885,-0.177492 -0.157435,-0.398206 -0.175124,-0.662096 -0.0022,-0.03298 -0.0024,-0.09006 -5.13e-4,-0.171182 0.0016,-0.0848 0.0017,-0.193419 1.71e-4,-0.32587 1.4e-5,-10e-7 2.8e-5,-2e-6 4.1e-5,-3e-6 z m 7.559886,0.267087 c -0.0033,0.101006 -0.0066,0.202011 -0.0098,0.303016 -0.04807,0.73072 -0.110112,1.326446 -0.18596,1.785617 -0.07589,0.459413 -0.162404,0.740938 -0.260519,0.844473 -0.133149,0.151615 -0.342134,0.228609 -0.627895,0.232464 -0.30698,0.0041 -0.528628,-0.05408 -0.665473,-0.176273 -0.05428,-0.06138 -0.09085,-0.117545 -0.109624,-0.168584 -0.01877,-0.05102 -0.02959,-0.144484 -0.03243,-0.280313 l -0.001,-0.04957 -0.0012,-0.05507 -0.0014,-0.06609 c -0.01086,-1.031775 0.0638,-2.071258 0.231168,-3.117338 0.167422,-1.046427 0.401922,-1.999164 0.706859,-2.858776 0.304845,-0.863143 0.648812,-1.545047 1.029441,-2.045806 0.380487,-0.504259 0.764935,-0.75512 1.145824,-0.752517 0.173152,0.0012 0.301566,0.05937 0.384859,0.174082 0.08722,0.111129 0.129328,0.271366 0.126805,0.48075 -0.0038,0.31226 -0.04221,0.644144 -0.114402,0.996067 -0.07213,0.34815 -0.15807,0.63207 -0.257815,0.851554 -0.09601,0.219567 -0.192343,0.329047 -0.289855,0.328459 -0.09001,-5.42e-4 -0.13424,-0.154988 -0.13269,-0.463502 l 5.25e-4,-0.104674 3.32e-4,-0.06611 c 0.0016,-0.308582 -0.005,-0.510485 -0.01971,-0.606114 -0.01092,-0.09555 -0.03909,-0.15994 -0.08454,-0.193169 -0.04211,0.08065 -0.07278,0.174205 -0.09207,0.280663 -0.09232,0.440252 -0.166515,0.839041 -0.223158,1.195016 -0.05607,0.352403 -0.14189,0.938354 -0.251272,1.735297 -0.0036,0.04408 -0.0091,0.09366 -0.01644,0.148757 -0.0073,0.05509 -0.01276,0.104685 -0.01639,0.148759 0.02576,-3.3e-5 0.05152,-5.6e-5 0.07728,-7e-5 0.04416,-0.0037 0.08464,-0.0055 0.121436,-0.0055 0.03677,-0.0036 0.09387,-0.0054 0.171131,-0.0053 0.139876,-0.01807 0.265111,-0.02672 0.375534,-0.0261 0.438412,0.0024 0.65576,0.119849 0.653114,0.347245 -0.0014,0.117577 -0.04525,0.260229 -0.131085,0.428322 -0.08213,0.16442 -0.180043,0.301231 -0.293747,0.410512 -0.113713,0.10929 -0.243234,0.189246 -0.388752,0.240036 -0.141977,0.04717 -0.346974,0.07953 -0.615659,0.09828 -0.05807,8.4e-5 -0.09983,0.002 -0.125225,0.0057 -0.02178,5.7e-5 -0.04718,0.002 -0.07621,0.0057 -10e-7,2e-6 -10e-7,4e-6 -2e-6,5e-6 z m 5.947442,-4.212719 c 0.563202,0.03057 0.840136,0.11337 0.832167,0.241657 -0.0091,0.146722 -0.140047,0.21735 -0.392534,0.213561 -0.305703,4.52e-4 -0.594627,0.06944 -0.865123,0.206605 -0.270536,0.137186 -0.514472,0.331862 -0.731146,0.583615 -0.212966,0.251947 -0.382632,0.539354 -0.509764,0.861812 -0.123433,0.322617 -0.19075,0.66577 -0.203775,1.029314 -0.01434,0.400134 0.06734,0.72669 0.242425,0.97958 0.175363,0.249419 0.40996,0.380224 0.705846,0.39394 0.274242,0.01271 0.521247,-0.118021 0.743515,-0.392888 0.222259,-0.274857 0.345722,-0.602351 0.367666,-0.98367 0.01793,-0.311654 -0.03126,-0.607001 -0.149239,-0.885757 -0.114073,-0.282208 -0.292707,-0.523684 -0.536667,-0.723438 -0.103822,-0.08978 -0.155049,-0.152833 -0.153284,-0.18956 0.0025,-0.0513 0.08274,-0.126661 0.241397,-0.225257 0.177755,-0.105003 0.3757,-0.190143 0.593618,-0.255096 0.217891,-0.06494 0.400334,-0.09263 0.546469,-0.08363 0.168676,0.01039 0.325188,0.06459 0.469015,0.162423 0.147823,0.09442 0.273939,0.226358 0.378202,0.395612 0.104527,0.165603 0.178752,0.354989 0.222987,0.568057 0.04821,0.209681 0.06348,0.431705 0.04636,0.666119 -0.02836,0.388274 -0.130105,0.767337 -0.302959,1.137953 -0.172572,0.366906 -0.384118,0.659666 -0.634283,0.878771 -0.322959,0.276961 -0.702905,0.498131 -1.139847,0.665751 -0.433158,0.164147 -0.838851,0.238888 -1.220844,0.223348 -0.316697,-0.01288 -0.629952,-0.07205 -0.941351,-0.17757 -0.05391,-0.0183 -0.107773,-0.03798 -0.161587,-0.05904 -0.362444,-0.14317 -0.649896,-0.324384 -0.862129,-0.545641 -0.282635,-0.299649 -0.421804,-0.719008 -0.413002,-1.258836 0.0069,-0.42598 0.118075,-0.850589 0.337189,-1.272596 0.21911,-0.421998 0.514061,-0.80164 0.886479,-1.1371 0.114317,-0.103006 0.232065,-0.198793 0.353212,-0.287332 0.278263,-0.202544 0.574425,-0.366715 0.887672,-0.492188 0.453866,-0.183742 0.909747,-0.263136 1.363318,-0.238516 -10e-7,0 -2e-6,0 -4e-6,0 z m 5.584067,4.280252 c -0.03361,0.02233 -0.06719,0.04468 -0.100762,0.06703 -0.01932,0.0091 -0.151019,0.08942 -0.393766,0.242001 -0.471128,0.299899 -0.852784,0.536965 -1.153502,0.712448 -0.299585,0.171363 -0.545759,0.296736 -0.740815,0.375629 -0.194595,0.07518 -0.34881,0.108216 -0.4635,0.09865 -0.193444,-0.01613 -0.342658,-0.109149 -0.448379,-0.27961 -0.1018,-0.173766 -0.143063,-0.390653 -0.122941,-0.650573 0.03399,-0.439078 0.138484,-0.945418 0.316214,-1.516815 0.178119,-0.575377 0.403236,-1.137421 0.677264,-1.685781 0.301504,-0.608687 0.642065,-0.966295 1.017928,-1.072275 0.132236,-0.04327 0.284568,-0.05688 0.456679,-0.0406 0.23574,0.02229 0.419565,0.112232 0.55096,0.269165 0.131407,0.156946 0.184945,0.352518 0.161376,0.586429 -0.0162,0.160827 -0.06119,0.327945 -0.134654,0.501499 -0.0735,0.17364 -0.183472,0.378429 -0.329532,0.615171 -0.02731,0.05084 -0.0546,0.101682 -0.08186,0.152535 -0.380973,0.633551 -0.575508,1.025214 -0.588807,1.166753 -0.0079,0.08411 0.01731,0.128895 0.07559,0.134419 0.05466,0.0052 0.129319,-0.02645 0.22424,-0.09479 0.09514,-0.06849 0.243314,-0.195842 0.446766,-0.382504 0.127097,-0.127494 0.305896,-0.285179 0.536495,-0.471798 0.07489,-0.0606 0.149869,-0.12115 0.224944,-0.181639 0.06531,-0.05597 0.130697,-0.111893 0.196156,-0.167775 0.410062,-0.325787 0.744767,-0.555596 0.998952,-0.689591 0.254993,-0.137856 0.460781,-0.19753 0.616137,-0.179584 0.296335,0.03423 0.413831,0.305607 0.353757,0.812764 -0.01255,0.105932 -0.04768,0.292141 -0.105314,0.559258 -0.106112,0.520124 -0.180431,0.963166 -0.223406,1.327931 -0.005,0.07342 -0.01111,0.14115 -0.01842,0.20319 -0.0033,0.05883 -0.01048,0.135673 -0.02166,0.230561 -0.0034,0.247339 -0.0075,0.437784 -0.01221,0.570271 7.33e-4,0.211017 0.001,0.316524 0.001,0.316524 -0.01297,0.109479 -0.121905,0.194509 -0.326269,0.255676 -0.204381,0.06117 -0.434066,0.07716 -0.689513,0.04837 -0.233847,-0.02636 -0.430145,-0.09415 -0.589432,-0.203825 -0.155267,-0.112916 -0.266585,-0.265161 -0.333937,-0.456985 -0.06734,-0.191783 -0.08754,-0.419276 -0.06008,-0.682311 0.0034,-0.03287 0.01297,-0.08915 0.02863,-0.16876 0.01604,-0.08328 0.03458,-0.190299 0.05562,-0.321069 1e-5,1e-6 2.1e-5,2e-6 3.2e-5,2e-6 z m 5.05934,-0.5849 c 0.126843,-0.112858 0.253866,-0.225614 0.381059,-0.33827 0.382843,-0.322537 0.685954,-0.559974 0.904956,-0.711131 0.223652,-0.154615 0.418598,-0.261058 0.584315,-0.319458 0.169421,-0.05789 0.335146,-0.07533 0.496966,-0.05233 0.261129,0.03711 0.435011,0.132711 0.521608,0.286304 0.08663,0.153645 0.105104,0.401441 0.05571,0.743502 -0.0205,0.141954 -0.06536,0.348975 -0.134531,0.621344 -0.09691,0.361171 -0.168593,0.703751 -0.215249,1.027596 -0.05242,0.363854 -0.07667,0.661304 -0.07285,0.892114 0.0055,0.141944 0.02371,0.285723 0.05457,0.431338 0.01738,0.136226 0.02261,0.228019 0.01577,0.275308 -0.0084,0.05821 -0.03679,0.100543 -0.08505,0.127005 -0.126665,0.082 -0.28762,0.146084 -0.482818,0.192432 -0.195194,0.04635 -0.355999,0.06063 -0.482695,0.0427 -0.206321,-0.02921 -0.384431,-0.126615 -0.534778,-0.292366 -0.14671,-0.165227 -0.249891,-0.379956 -0.309545,-0.64425 -0.05602,-0.263773 -0.06249,-0.554161 -0.01897,-0.871002 0.02901,-0.211212 0.08511,-0.45777 0.168503,-0.73943 -0.0063,-0.0083 -0.0126,-0.01658 -0.0189,-0.02487 -0.181141,0.153322 -0.327406,0.274142 -0.439792,0.362852 -0.108615,0.08911 -0.210922,0.173583 -0.306906,0.253369 -0.47052,0.411376 -0.870432,0.786925 -1.201264,1.125683 -0.127435,0.131704 -0.243179,0.246438 -0.347433,0.344218 -0.15082,0.117721 -0.310704,0.165836 -0.480024,0.144454 -0.230546,-0.02912 -0.40686,-0.139866 -0.52961,-0.332726 -0.122711,-0.192799 -0.167586,-0.427837 -0.133922,-0.705078 0.02082,-0.171426 0.0662,-0.378869 0.136348,-0.622028 0.07016,-0.24318 0.15522,-0.501258 0.255359,-0.774056 0.104239,-0.276015 0.220657,-0.557916 0.349421,-0.845628 0.132437,-0.287271 0.270844,-0.558887 0.415259,-0.814882 0.225819,-0.427314 0.477216,-0.751067 0.753876,-0.971222 0.187631,-0.142617 0.400203,-0.198448 0.637039,-0.16726 0.385113,0.05071 0.543867,0.322811 0.477713,0.814536 -0.04858,0.361087 -0.193449,0.865654 -0.433182,1.516436 0.0064,0.0083 0.0127,0.01653 0.01906,0.0248 z m 6.786177,1.474332 0.04765,-0.316157 c -0.211009,0.135426 -0.362387,0.196095 -0.45375,0.182221 -0.01745,-0.0027 -0.03148,-0.0078 -0.04208,-0.01547 -0.02045,-0.0148 -0.02812,-0.03895 -0.02304,-0.07247 0.0033,-0.0218 0.02115,-0.06555 0.05353,-0.131258 0,0 6.22e-4,-0.0012 6.22e-4,-0.0012 0,0 0,0 0,0 0.109472,-0.205934 0.179519,-0.410481 0.210305,-0.61356 0.03449,-0.227535 0.03181,-0.467357 -0.0079,-0.719464 0,0 0,0 0,-10e-7 -0.01172,-0.074 -0.02665,-0.149064 -0.0448,-0.22519 -0.03003,-0.171835 -0.08529,-0.263876 -0.165775,-0.276099 -0.04024,-0.0061 -0.07591,0.0071 -0.107027,0.03951 -0.141629,0.119764 -0.286535,0.298546 -0.434626,0.536366 -0.147548,0.234195 -0.280253,0.494806 -0.398158,0.78186 -0.113699,0.28395 -0.18769,0.540471 -0.222106,0.76945 -0.06501,0.432561 0.03374,0.668464 0.296079,0.707989 0.131213,0.01977 0.317668,-0.03016 0.559591,-0.149639 0.06749,-0.03361 0.134785,-0.07046 0.20188,-0.110538 0.17813,-0.105933 0.35467,-0.234725 0.529546,-0.38638 10e-7,10e-7 3e-6,2e-6 4e-6,3e-6 z m 0.559243,-2.56383 c 0.02936,-0.07178 0.05872,-0.143559 0.08806,-0.215344 0.187352,-0.481086 0.348865,-0.867508 0.484962,-1.159414 0.136621,-0.295498 0.267493,-0.541744 0.392692,-0.738699 0.129354,-0.200061 0.247801,-0.340476 0.355492,-0.421215 0.175573,-0.141331 0.459508,-0.183148 0.851757,-0.126344 0.172747,0.02502 0.299096,0.05247 0.379233,0.08255 0.08371,0.03059 0.147357,0.07312 0.19095,0.127621 -0.250615,0.518165 -0.429795,0.906854 -0.538131,1.170492 -0.103933,0.259879 -0.229928,0.620417 -0.378356,1.081788 -0.235277,0.753479 -0.398805,1.440608 -0.489459,2.06277 -0.05989,0.410991 -0.08931,0.843215 -0.08785,1.296565 0.0057,0.450136 0.04634,0.957754 0.12284,1.522056 -0.214682,0.106406 -0.419305,0.193652 -0.613693,0.261792 -0.190707,0.06868 -0.371213,0.118274 -0.541397,0.14883 -0.166499,0.0311 -0.310571,0.03754 -0.432117,0.01941 -0.213651,-0.03187 -0.349081,-0.158174 -0.406257,-0.378606 -0.04792,-0.181862 -0.07518,-0.325392 -0.08191,-0.43045 -0.0062,-0.108591 -0.0013,-0.40357 0.01494,-0.884165 -0.180135,0.137892 -0.356774,0.265179 -0.529839,0.381867 -0.370328,0.251656 -0.723368,0.455103 -1.059039,0.610244 -0.487521,0.224169 -0.863108,0.316968 -1.128106,0.277712 -0.304889,-0.04516 -0.536877,-0.205595 -0.696622,-0.48165 -0.155546,-0.279098 -0.204954,-0.615158 -0.147646,-1.008011 0.05147,-0.352839 0.18311,-0.733121 0.395627,-1.140408 0.21673,-0.41045 0.488373,-0.797775 0.815356,-1.161885 0.214986,-0.239438 0.427721,-0.436353 0.638012,-0.590767 0.214506,-0.157508 0.450776,-0.296753 0.70877,-0.417706 0.454853,-0.206865 0.823992,-0.29191 1.106677,-0.255704 0,0 0,0 0,0 0,0 0,0 0,0 0.0072,9.13e-4 0.01432,0.0019 0.0214,0.003 0.13804,0.0209 0.325703,0.142182 0.563653,0.363698 -10e-7,0 -10e-7,10e-7 -10e-7,2e-6 z m 6.794861,0.652782 c 0.01,-0.02098 0.01994,-0.04197 0.0299,-0.06295 0.323465,-0.648804 0.586762,-1.101304 0.792996,-1.357786 0.09859,-0.121315 0.227566,-0.22416 0.386817,-0.308749 0.297519,-0.145776 0.567332,-0.204783 0.810702,-0.176717 0.143149,0.01651 0.248519,0.06178 0.316272,0.136041 0.06774,0.07424 0.09471,0.173432 0.08077,0.297585 -0.0094,0.08387 -0.08245,0.249689 -0.219644,0.496581 -0.232262,0.410128 -0.415879,0.79746 -0.54993,1.163096 0.06073,0.01443 0.119231,0.03227 0.175513,0.05353 0.213611,0.05782 0.352337,0.112195 0.416327,0.163784 0.06436,0.0479 0.09047,0.126607 0.07825,0.236168 -0.02158,0.193554 -0.09053,0.367041 -0.207285,0.520318 -0.116751,0.15327 -0.259806,0.259126 -0.429097,0.317394 -0.126589,0.04094 -0.326146,0.05499 -0.598308,0.0414 -0.06422,0.13677 -0.140232,0.325722 -0.228261,0.566954 -0.05895,0.215107 -0.131588,0.513549 -0.218194,0.895598 -0.03904,0.139695 -0.06601,0.271559 -0.08083,0.395637 -0.06883,0.576245 0.17917,0.899225 0.746781,0.964309 0.01112,0.0013 0.02223,0.0025 0.03335,0.0038 0.0056,6.37e-4 0.01112,0.0013 0.01668,0.0019 0.06671,0.0076 0.09882,0.02237 0.09632,0.04428 -0.0067,0.05838 -0.08091,0.149876 -0.223072,0.274094 -0.142186,0.124235 -0.295727,0.230387 -0.460577,0.318389 -0.176427,0.09034 -0.365385,0.15681 -0.566719,0.199295 -0.201326,0.04248 -0.380227,0.05406 -0.536411,0.03491 -0.390533,-0.04788 -0.692079,-0.217437 -0.903714,-0.507433 -0.207948,-0.28955 -0.283644,-0.647805 -0.228554,-1.074319 0.02355,-0.182333 0.08573,-0.416935 0.186263,-0.704243 0.104395,-0.287362 0.255745,-0.66879 0.454398,-1.14802 0.03308,-0.08472 0.06842,-0.172847 0.106023,-0.264407 0.03804,-0.09515 0.06006,-0.151751 0.06601,-0.169466 -0.145494,-0.02215 -0.245531,-0.06647 -0.300042,-0.132765 -0.05453,-0.06629 -0.0733,-0.165061 -0.05641,-0.296311 0.02955,-0.229674 0.144866,-0.435281 0.345174,-0.617232 0.203939,-0.181487 0.42661,-0.282981 0.668506,-0.304703 -4e-6,3e-6 -8e-6,5e-6 -1.2e-5,8e-6 z m 6.56852,-0.70049 0.0074,-0.08784 c 0.01144,-0.135424 -7.1e-4,-0.204645 -0.03644,-0.207687 -0.04645,-0.004 -0.125876,0.063 -0.238763,0.200684 -0.109304,0.137992 -0.211416,0.293117 -0.306304,0.465398 -0.238024,0.439842 -0.457129,0.908683 -0.656761,1.406716 -0.199315,0.494428 -0.365699,0.991568 -0.498123,1.491995 -0.04803,0.194785 -0.09951,0.405638 -0.154601,0.632947 0.0085,0.0082 0.01703,0.01638 0.02554,0.02457 0.405123,-0.342508 0.700514,-0.583361 0.895214,-0.725381 0.193872,-0.141415 0.441717,-0.29997 0.743809,-0.477346 0.378975,-0.218682 0.683453,-0.319635 0.9167,-0.301478 0.149343,0.01162 0.259882,0.07524 0.331878,0.191159 0.07589,0.112495 0.106959,0.263985 0.09283,0.454435 -0.0081,0.109827 -0.04177,0.265821 -0.101126,0.467588 -0.10946,0.426608 -0.175888,0.787713 -0.198321,1.084554 -0.01024,0.135505 -0.0099,0.279197 0.0011,0.431034 0.0097,0.11814 0.05332,0.359919 0.131536,0.72249 0.06594,0.277596 0.0982,0.430526 0.09605,0.460029 -0.0037,0.05128 -0.07014,0.109091 -0.199461,0.173146 -0.41697,0.226833 -0.79443,0.325966 -1.128864,0.298465 -0.27443,-0.02257 -0.486988,-0.171664 -0.636592,-0.44644 -0.145922,-0.274565 -0.199551,-0.620358 -0.162474,-1.03753 0.01464,-0.164694 0.04909,-0.362529 0.103148,-0.593798 -0.0086,-0.0081 -0.01721,-0.01627 -0.02582,-0.02441 -0.573012,0.48761 -0.961412,0.813941 -1.158064,0.983336 -0.723112,0.565443 -1.270558,0.826614 -1.628797,0.788919 -0.164521,-0.01731 -0.289655,-0.13786 -0.374924,-0.361386 -0.08117,-0.226839 -0.102714,-0.511855 -0.06531,-0.855265 0.08052,-0.73939 0.415149,-1.653302 0.992156,-2.754121 0.229163,-0.426672 0.465685,-0.832563 0.709416,-1.217758 0.244118,-0.38888 0.471808,-0.722495 0.683929,-1.000804 0.15325,-0.195439 0.308661,-0.363169 0.466357,-0.503199 0.161624,-0.143351 0.320159,-0.259541 0.475835,-0.348551 0.159579,-0.09234 0.318068,-0.157353 0.475706,-0.195039 0.15764,-0.03769 0.312815,-0.05003 0.465779,-0.03703 0.380556,0.03235 0.679811,0.17782 0.899829,0.438108 0.223454,0.260413 0.3222,0.579016 0.293995,0.956238 -0.01971,0.26365 -0.114219,0.538499 -0.284988,0.823767 -0.170779,0.285288 -0.401093,0.551084 -0.691842,0.796464 -0.184553,0.15451 -0.39189,0.288417 -0.622008,0.401441 -0.226129,0.109662 -0.399978,0.158837 -0.520439,0.148093 -0.03652,-0.0033 -0.06825,-0.01901 -0.09515,-0.04725 -0.02691,-0.02823 -0.03854,-0.06248 -0.03491,-0.102727 0.005,-0.05495 0.06311,-0.169411 0.17408,-0.343972 0.127117,-0.191495 0.255858,-0.427213 0.385949,-0.707181 0.130394,-0.283595 0.233396,-0.553183 0.309472,-0.808401 0.07997,-0.258543 0.127316,-0.477693 0.142456,-0.656972 -2.3e-5,-2e-6 -4.7e-5,-4e-6 -7e-5,-6e-6 z m 3.461782,5.25593 c 0.17756,-0.104373 0.31372,-0.211385 0.40869,-0.320537 0.20918,-0.228434 0.37424,-0.494442 0.4958,-0.797664 0.0944,-0.197849 0.17099,-0.420463 0.23,-0.667877 0.059,-0.247364 0.0931,-0.479416 0.1028,-0.695912 0.009,-0.201846 -0.0283,-0.304602 -0.11199,-0.30841 -0.1164,-0.0053 -0.30607,0.245193 -0.57388,0.750288 -0.15857,0.304653 -0.29263,0.610209 -0.4016,0.917064 -0.1051,0.303446 -0.16423,0.566702 -0.17645,0.790524 -0.004,0.07699 0.005,0.187896 0.0267,0.332527 -2e-5,-1e-6 -4e-5,-2e-6 -5e-5,-3e-6 z m 0.002,0.176658 c 0.0291,0.222218 0.16905,0.340368 0.42004,0.353083 0.28051,0.01421 0.65454,-0.129612 1.11558,-0.434142 0.26901,-0.176495 0.44701,-0.263704 0.53658,-0.26044 0.11174,0.0041 0.21499,0.03708 0.30999,0.09911 0.095,0.06202 0.14161,0.124156 0.13961,0.186594 -0.002,0.06608 -0.059,0.15072 -0.17117,0.253527 -0.20494,0.187905 -0.44073,0.370556 -0.70762,0.547372 -0.26672,0.173136 -0.52407,0.316366 -0.77121,0.429866 -0.24699,0.109842 -0.49351,0.195053 -0.73909,0.255679 -0.24537,0.05695 -0.46281,0.07973 -0.65162,0.06879 -0.47218,-0.02735 -0.84152,-0.181973 -1.106,-0.460935 -0.26429,-0.282693 -0.37975,-0.64263 -0.3492,-1.078633 0.0234,-0.333553 0.12236,-0.703698 0.29506,-1.111685 0.17659,-0.411291 0.39972,-0.792018 0.66832,-1.142965 0.3165,-0.410467 0.69125,-0.746435 1.1242,-1.009734 0.53414,-0.316634 1.03247,-0.465839 1.50192,-0.446503 0.33935,0.01398 0.60041,0.133459 0.78485,0.360303 0.18803,0.223118 0.27712,0.525574 0.26512,0.907486 -0.009,0.297434 -0.0976,0.605522 -0.26687,0.923348 -0.16557,0.317946 -0.40767,0.620201 -0.72779,0.905202 -0.26249,0.239495 -0.52071,0.423144 -0.77338,0.551071 -0.24895,0.128101 -0.46561,0.187094 -0.64856,0.177546 -0.0822,-0.0043 -0.16512,-0.02893 -0.24876,-0.07393 z m 9.15285,-0.586713 c -0.077,0.166545 -0.15438,0.33303 -0.23197,0.499454 -0.21304,0.447472 -0.41079,0.811848 -0.59155,1.092806 -0.18081,0.281029 -0.35043,0.480841 -0.50776,0.599466 -0.15738,0.114966 -0.32497,0.172823 -0.50222,0.173462 -0.18104,6.53e-4 -0.33967,-0.0744 -0.47527,-0.224949 -0.26385,-0.301277 -0.48221,-0.872712 -0.65338,-1.714786 -0.13458,-0.679792 -0.19899,-1.266797 -0.19605,-1.758634 0.002,-0.385585 0.0482,-0.692191 0.1369,-0.919372 0.0888,-0.230945 0.226,-0.39929 0.41164,-0.505388 0.18572,-0.109809 0.42715,-0.164713 0.72504,-0.165651 0.15623,-4.92e-4 0.26897,0.02645 0.33836,0.08116 0.073,0.05467 0.12284,0.164547 0.14946,0.329643 0.0266,0.165028 0.0412,0.414828 0.0435,0.748971 0.004,0.609766 0.0376,1.184153 0.10106,1.723685 0.008,0.02943 0.0272,0.175994 0.0591,0.440285 0.009,-7.5e-5 0.0186,-1.51e-4 0.0279,-2.27e-4 0.0256,-0.05527 0.0457,-0.09958 0.0602,-0.132733 1e-5,-2.5e-5 0.0437,-0.09953 0.0437,-0.09955 0.0145,-0.03318 0.0272,-0.06269 0.0382,-0.08849 0.0146,-0.02951 0.0328,-0.0701 0.0545,-0.121719 0.19227,-0.442536 0.39145,-0.951832 0.59631,-1.527606 0.23704,-0.661656 0.39649,-1.063035 0.4855,-1.208697 0.0249,-0.03349 0.0588,-0.07082 0.10173,-0.112 0.17225,-0.131704 0.41959,-0.20069 0.74282,-0.20819 0.17069,-0.004 0.29861,0.02586 0.38391,0.08979 0.0852,0.06025 0.14441,0.165226 0.17759,0.314966 0.0368,0.149587 0.0636,0.396989 0.0803,0.741848 0.008,0.275091 0.0491,0.660298 0.12559,1.15393 0.0801,0.490164 0.16491,0.926755 0.25435,1.310001 0.0297,0.130437 0.0934,0.382227 0.19035,0.749452 0.009,-2.83e-4 0.0187,-5.68e-4 0.0281,-8.53e-4 0.0748,-0.244686 0.1248,-0.435758 0.15027,-0.572407 0.0934,-0.470103 0.12482,-1.14278 0.0961,-2.020598 l -0.008,-0.247795 c -0.009,-0.260606 0.009,-0.468873 0.0509,-0.624591 0.0423,-0.159433 0.12147,-0.305401 0.23726,-0.438078 0.12311,-0.132931 0.26678,-0.242855 0.43108,-0.329932 0.16416,-0.09075 0.30964,-0.138792 0.43688,-0.143968 0.14902,-0.0061 0.25696,0.05 0.32399,0.16848 0.0705,0.114604 0.11164,0.305922 0.1232,0.573792 0.0259,0.60115 -0.0656,1.358539 -0.28072,2.267358 -0.18732,0.776049 -0.44882,1.493811 -0.78664,2.152646 -0.10931,0.205986 -0.21662,0.375029 -0.32165,0.50712 -0.10503,0.132096 -0.21539,0.225661 -0.33085,0.280673 -0.11535,0.05868 -0.2487,0.09023 -0.39986,0.09451 -0.53691,0.01521 -0.98609,-0.309147 -1.34125,-0.970637 -0.10555,-0.203637 -0.19992,-0.435101 -0.28318,-0.69442 -0.0833,-0.259336 -0.1556,-0.55924 -0.21708,-0.899857 -0.0196,-0.05845 -0.0365,-0.179371 -0.0506,-0.362814 -0.009,1.52e-4 -0.0185,3.03e-4 -0.0277,4.53e-4 z m 8.04247,-3.608485 c 0.54107,-0.03678 0.81627,0.0071 0.82556,0.135371 0.0106,0.146555 -0.10555,0.234387 -0.34875,0.262588 -0.29357,0.03912 -0.56261,0.142069 -0.80795,0.309175 -0.24532,0.167092 -0.46044,0.386895 -0.64565,0.659674 -0.18154,0.272536 -0.31996,0.575273 -0.41479,0.908393 -0.0911,0.332895 -0.12672,0.680905 -0.10574,1.044017 0.0231,0.399852 0.13621,0.71713 0.34069,0.951689 0.20418,0.230796 0.45972,0.336839 0.76545,0.317401 0.28336,-0.01801 0.52195,-0.177459 0.71439,-0.477792 0.19246,-0.300338 0.27459,-0.641375 0.24799,-1.022625 -0.0217,-0.311598 -0.10857,-0.59836 -0.25961,-0.860558 -0.14761,-0.266116 -0.35224,-0.484214 -0.61361,-0.6549 -0.11176,-0.07737 -0.16873,-0.134498 -0.17109,-0.171146 -0.003,-0.05137 0.0667,-0.134958 0.20954,-0.251179 0.16066,-0.124746 0.34229,-0.23271 0.54497,-0.324083 0.20269,-0.09138 0.37488,-0.14233 0.51711,-0.152596 0.16409,-0.01184 0.32224,0.02073 0.47477,0.09777 0.15589,0.0731 0.29664,0.185862 0.42237,0.338374 0.12544,0.14884 0.22575,0.32535 0.30076,0.529602 0.0784,0.200298 0.12697,0.417685 0.14543,0.652172 0.0306,0.388362 -0.0127,0.778939 -0.13132,1.171495 -0.11889,0.388916 -0.29053,0.709774 -0.51513,0.962316 -0.29066,0.320038 -0.65211,0.591128 -1.08432,0.811957 -0.4287,0.216903 -0.84475,0.337367 -1.246,0.36168 -0.38999,0.02363 -0.78229,-0.02017 -1.17552,-0.131454 -0.38949,-0.111489 -0.70172,-0.270693 -0.93655,-0.476291 -0.31355,-0.279217 -0.48128,-0.688877 -0.50604,-1.228379 -0.0195,-0.42572 0.0667,-0.856102 0.2562,-1.291787 0.18948,-0.435671 0.45287,-0.834885 0.78912,-1.198544 0.33973,-0.36755 0.71591,-0.662861 1.12956,-0.886564 0.4171,-0.227609 0.84238,-0.356156 1.27815,-0.385775 0,-10e-7 0,-10e-7 1e-5,-10e-7 z m 4.43832,3.524875 c -0.004,0.03728 -0.008,0.07456 -0.0124,0.11184 0.006,0.06223 0.006,0.152618 0.002,0.271093 0.001,0.180743 -0.006,0.329006 -0.0218,0.44484 -0.0159,0.115834 -0.0464,0.214515 -0.0917,0.296044 -0.0457,0.07786 -0.10949,0.16287 -0.19158,0.254939 -0.25073,0.269238 -0.51523,0.415479 -0.79198,0.438578 -0.22441,0.01873 -0.39754,-0.04835 -0.51895,-0.200764 -0.11774,-0.152793 -0.19075,-0.408641 -0.21957,-0.767729 -0.0229,-0.285877 -0.0195,-0.639889 0.01,-1.062716 0.0326,-0.426637 0.0812,-0.810483 0.14581,-1.151342 0.0108,-0.04883 0.0216,-0.09766 0.0324,-0.14649 -0.002,-0.02198 0.005,-0.06867 0.0218,-0.140094 0.0948,-0.509457 0.18821,-0.887845 0.28128,-1.135552 0.0928,-0.251294 0.21282,-0.457085 0.36024,-0.617453 0.13209,-0.125845 0.28702,-0.196643 0.46517,-0.212558 0.25803,-0.02305 0.42875,0.119916 0.51226,0.429766 0.047,-0.04861 0.0915,-0.104387 0.1334,-0.167336 0.0938,-0.137905 0.16772,-0.229704 0.22216,-0.27544 0.0541,-0.04938 0.11927,-0.07767 0.19561,-0.08491 0.3123,-0.0296 0.49913,0.265924 0.55948,0.888075 0.033,0.340308 0.0284,0.673167 -0.0143,0.998621 -0.0427,0.325466 -0.11158,0.594251 -0.20669,0.806417 -0.0914,0.211791 -0.19274,0.322874 -0.30347,0.333209 -0.1218,0.01137 -0.20387,-0.211811 -0.24617,-0.669372 -0.0223,-0.241567 -0.0545,-0.428773 -0.0963,-0.561479 -0.0385,-0.136726 -0.0906,-0.240838 -0.15623,-0.312337 -0.091,0.214904 -0.12008,0.690302 -0.087,1.425358 0.0126,0.426796 0.0182,0.696168 0.017,0.80678 -3e-5,4e-6 -6e-5,8e-6 -9e-5,1.2e-5 z m 5.24523,-1.289382 -0.0367,-0.317766 c -0.16842,0.186007 -0.29898,0.284158 -0.39094,0.294611 -0.0515,0.0059 -0.0802,-0.0168 -0.086,-0.06795 -0.002,-0.02192 0.003,-0.06883 0.0176,-0.140757 0.0523,-0.227954 0.0666,-0.444248 0.0433,-0.648812 -0.0337,-0.295931 -0.13286,-0.595411 -0.2966,-0.89882 -0.0734,-0.158209 -0.15008,-0.232804 -0.23031,-0.223801 -0.0401,0.0045 -0.0709,0.02644 -0.0923,0.06584 -0.10486,0.152305 -0.19797,0.362404 -0.27953,0.630317 -0.082,0.264247 -0.14341,0.550241 -0.18423,0.857945 -0.0375,0.303696 -0.044,0.570595 -0.0191,0.800915 0.0472,0.434918 0.20366,0.638185 0.46998,0.60883 0.13302,-0.01466 0.30203,-0.111086 0.50619,-0.289479 0.20746,-0.182475 0.40041,-0.406197 0.57863,-0.671075 0,10e-7 -10e-6,2e-6 -10e-6,3e-6 z m -0.13151,-2.622002 c 0.009,-0.07698 0.0189,-0.153967 0.0284,-0.23095 0.0544,-0.513575 0.10834,-0.928752 0.16258,-1.246241 0.0538,-0.321023 0.11483,-0.592982 0.18328,-0.815882 0.0716,-0.226985 0.14834,-0.393537 0.23041,-0.49969 0.13128,-0.182471 0.39242,-0.297204 0.78396,-0.345612 0.17246,-0.02132 0.30108,-0.02814 0.38603,-0.02024 0.0885,0.0074 0.16093,0.03168 0.21725,0.07276 -0.104,0.565898 -0.17367,0.98824 -0.20824,1.271087 -0.0313,0.278146 -0.0573,0.659138 -0.0784,1.143429 -0.0276,0.788975 -0.004,1.495075 0.073,2.119248 0.0508,0.412325 0.1365,0.837089 0.25773,1.27405 0.12444,0.432778 0.29797,0.911629 0.5213,1.435683 -0.17932,0.159516 -0.35412,0.297855 -0.52421,0.415032 -0.16639,0.116725 -0.32807,0.212301 -0.48488,0.286749 -0.1531,0.074 -0.29108,0.118242 -0.41373,0.1328 -0.21559,0.02559 -0.38027,-0.06068 -0.49366,-0.25843 -0.0943,-0.16295 -0.15842,-0.294371 -0.19252,-0.394025 -0.0345,-0.103123 -0.10723,-0.389382 -0.21742,-0.857595 -0.43586,0.568532 -0.8674,1.025755 -1.29234,1.371682 -0.42159,0.341844 -0.77012,0.52644 -1.04218,0.554727 -0.31322,0.03257 -0.58343,-0.0657 -0.80952,-0.294271 -0.22279,-0.232672 -0.35316,-0.546696 -0.39228,-0.941849 -0.0352,-0.354954 0.002,-0.755588 0.1099,-1.202438 0.11124,-0.45081 0.28009,-0.892805 0.5056,-1.326328 0.14828,-0.285117 0.30388,-0.528719 0.46709,-0.730842 0.16647,-0.206167 0.35772,-0.400417 0.5737,-0.582933 0.39225,-0.323759 0.72871,-0.502074 1.01226,-0.534282 0.13815,-0.01569 0.35006,0.05263 0.63688,0.204372 1e-5,-10e-7 3e-5,-2e-6 5e-5,-4e-6 z m 4.04726,2.531871 c -0.25007,0.03293 -0.39092,-0.07306 -0.4227,-0.317266 -0.008,-0.06201 -0.004,-0.184875 0.0135,-0.368785 0.13146,-1.336798 0.30364,-2.498185 0.51768,-3.483483 0.0483,-0.243812 0.12007,-0.435177 0.21526,-0.574106 0.11391,-0.163715 0.30276,-0.315343 0.56641,-0.455341 0.26313,-0.143638 0.526,-0.233851 0.78909,-0.270651 0.24501,-0.03427 0.37972,0.03381 0.40399,0.204853 0.0276,0.194582 -0.11294,0.949538 -0.4309,2.253538 -0.33406,1.326576 -0.53896,2.051688 -0.60422,2.175559 -0.0589,0.11558 -0.15457,0.236159 -0.28709,0.361579 -0.13254,0.125427 -0.26955,0.232793 -0.41097,0.322076 -0.14142,0.08928 -0.25819,0.139931 -0.35009,0.152032 2e-5,-2e-6 3e-5,-3e-6 4e-5,-5e-6 z m -0.13183,2.091684 c -0.14085,0.01835 -0.26074,-0.0051 -0.35954,-0.07018 -0.0993,-0.06875 -0.15702,-0.16699 -0.17337,-0.294621 -0.029,-0.226212 0.0549,-0.540627 0.25018,-0.944167 0.0357,-0.07136 0.0729,-0.131798 0.1114,-0.181307 0.0963,-0.123769 0.22458,-0.231368 0.38474,-0.322942 0.16016,-0.09157 0.31736,-0.147697 0.47181,-0.168356 0.14708,-0.01968 0.26888,-0.0046 0.36551,0.04544 0.0966,0.05 0.15187,0.125957 0.16569,0.227946 0.0168,0.123823 0.005,0.284987 -0.0359,0.483369 -0.0413,0.194762 -0.098,0.373048 -0.17037,0.534848 -0.0405,0.09075 -0.11638,0.184407 -0.22775,0.280862 -0.27663,0.240902 -0.5378,0.377238 -0.78241,0.409109 -1e-5,0 -1e-5,0 -2e-5,-10e-7 z"
       id="text1"
       aria-label="You found the word!" />
  </g>
</svg>
