<?xml version="1.0" encoding="UTF-8" standalone="no"?>
<svg
   xmlns:dc="http://purl.org/dc/elements/1.1/"
   xmlns:cc="http://creativecommons.org/ns#"
   xmlns:rdf="http://www.w3.org/1999/02/22-rdf-syntax-ns#"
   xmlns:svg="http://www.w3.org/2000/svg"
   xmlns="http://www.w3.org/2000/svg"
   xmlns:xlink="http://www.w3.org/1999/xlink"
   xmlns:sodipodi="http://sodipodi.sourceforge.net/DTD/sodipodi-0.dtd"
   xmlns:inkscape="http://www.inkscape.org/namespaces/inkscape"
   inkscape:version="1.0 (4035a4fb49, 2020-05-01)"
   sodipodi:docname="isketch.svg"
   id="svg8"
   version="1.1"
   viewBox="0 0 26.458334 26.458334"
   height="100"
   width="100">
  <defs
     id="defs2">
    <linearGradient
       inkscape:collect="always"
       id="linearGradient937">
      <stop
         style="stop-color:#080827;stop-opacity:1"
         offset="0"
         id="stop933" />
      <stop
         style="stop-color:#553475;stop-opacity:0"
         offset="1"
         id="stop935" />
    </linearGradient>
    <linearGradient
       gradientTransform="matrix(0.88674343,0,0.03564616,0.99413566,1.6017913,0.40862198)"
       gradientUnits="userSpaceOnUse"
       y2="7.0896931"
       x2="21.820911"
       y1="22.240009"
       x1="9.778348"
       id="linearGradient931"
       xlink:href="#linearGradient937"
       inkscape:collect="always" />
  </defs>
  <sodipodi:namedview
     showguides="false"
     inkscape:window-maximized="1"
     inkscape:window-y="-8"
     inkscape:window-x="-8"
     inkscape:window-height="1009"
     inkscape:window-width="1920"
     units="px"
     showgrid="false"
     inkscape:document-rotation="0"
     inkscape:current-layer="svg8"
     inkscape:document-units="mm"
     inkscape:cy="56.594204"
     inkscape:cx="43.185865"
     inkscape:zoom="5.6568543"
     inkscape:pageshadow="2"
     inkscape:pageopacity="0.0"
     borderopacity="1.0"
     bordercolor="#666666"
     pagecolor="#ffffff"
     id="base" />
  <metadata
     id="metadata5">
    <rdf:RDF>
      <cc:Work
         rdf:about="">
        <dc:format>image/svg+xml</dc:format>
        <dc:type
           rdf:resource="http://purl.org/dc/dcmitype/StillImage" />
        <dc:title />
      </cc:Work>
    </rdf:RDF>
  </metadata>
  <g
     transform="translate(6.0249619,0.89827384)"
     style="opacity:0.906801"
     id="g213">
    <path
       id="rect14"
       style="display:inline;opacity:1;fill:#205e78;fill-opacity:1;fill-rule:evenodd;stroke-width:3.20326;stroke-dashoffset:88.7603;paint-order:fill markers stroke"
       d="m 57.9375,78.978516 c -2.974178,1.50257 -6.127182,2.645182 -9.402344,3.539062 l 4.390625,6.5 z"
       sodipodi:nodetypes="cccc"
       transform="matrix(0.26458333,0,0,0.26458333,-6.0249555,-0.89826602)" />
    <path
       id="rect14-5-3-5-1-6-5-2"
       style="display:inline;opacity:1;fill:#3baeca;fill-opacity:1;fill-rule:evenodd;stroke-width:3.20326;stroke-dashoffset:88.7603;paint-order:fill markers stroke"
       d="m 61.285156,70.574219 c -2.495962,1.180665 -7.804687,3.035156 -7.804687,3.035156 h -0.002 l -1.386719,2.777344 -1.326172,-1.964844 c -2.157479,0.610265 -4.357808,1.151447 -6.583984,1.652344 l 4.351562,6.443359 c 3.275811,-0.893953 6.42957,-2.036214 9.404297,-3.539062 l 3.441406,-6.894532 z"
       sodipodi:nodetypes="cccccccccc"
       transform="matrix(0.26458333,0,0,0.26458333,-6.0249555,-0.89826602)" />
    <path
       id="rect14-5-3-5-1-6"
       style="display:inline;opacity:1;fill:#b12f9e;fill-opacity:1;fill-rule:evenodd;stroke-width:3.20326;stroke-dashoffset:88.7603;paint-order:fill markers stroke"
       d="m 60.708984,61.324219 c 0,0 -4.183801,0.986022 -6.308593,1.425781 l 0.498047,8.019531 -1.419922,2.839844 c 2.697593,-0.858272 5.310131,-1.854232 7.80664,-3.035156 z m -12.509765,2.669922 c -2.111791,0.41458 -4.217717,0.838646 -6.314453,1.279297 l 0.507812,8.152343 1.789063,2.648438 c 2.226176,-0.500897 4.426505,-1.042079 6.583984,-1.652344 l -2.113281,-3.128906 z"
       sodipodi:nodetypes="ccccccccccccccc"
       transform="matrix(0.26458333,0,0,0.26458333,-6.0249555,-0.89826602)" />
    <path
       id="rect14-5-3-5-1"
       style="display:inline;opacity:1;fill:#323232;fill-opacity:1;fill-rule:evenodd;stroke-width:3.20326;stroke-dashoffset:88.7603;paint-order:fill markers stroke"
       d="m 59.871094,47.863281 0.002,-0.002 z m 0,0 c 0,0 -0.290602,0.266673 -0.44336,0.394531 -1.784409,1.493589 -3.686075,2.798687 -5.683593,3.949219 L 54.400391,62.75 c 2.124792,-0.439759 4.227013,-0.917736 6.308593,-1.425781 z m -12.21875,7.296875 c -2.026515,0.827937 -4.120113,1.548738 -6.259766,2.195313 l 0.492188,7.917969 c 2.096736,-0.440651 4.202662,-0.864717 6.314453,-1.279297 z"
       sodipodi:nodetypes="cccccccccccccc"
       transform="matrix(0.26458333,0,0,0.26458333,-6.0249555,-0.89826602)" />
    <path
       id="rect14-5-3-5-1-6-5-6"
       style="display:inline;opacity:1;fill:#4c5482;fill-opacity:1;fill-rule:evenodd;stroke-width:3.20326;stroke-dashoffset:88.7603;paint-order:fill markers stroke"
       inkscape:label="rect14-5-3-5-1-6-5-6"
       d="m 58.964844,33.277345 -2.623047,0.193359 C 55.305852,35.789046 54.201035,38.055257 53,40.248047 l 0.744141,11.958984 c 1.997518,-1.150532 3.899184,-2.45563 5.683593,-3.949219 0.153467,-0.128453 0.294106,-0.266328 0.445313,-0.396484 z M 47.267578,48.970703 C 45.475725,51.222627 43.491823,53.328261 41.261719,55.25 l 0.130859,2.105469 c 2.139653,-0.646575 4.233251,-1.367376 6.259766,-2.195313 z"
       sodipodi:nodetypes="ccccsccccccc"
       transform="matrix(0.26458333,0,0,0.26458333,-6.0249555,-0.89826602)" />
    <path
       id="rect14-5-3-5-1-6-5"
       style="display:inline;opacity:1;fill:#ca3b3b;fill-opacity:1;fill-rule:evenodd;stroke-width:3.20326;stroke-dashoffset:88.7603;paint-order:fill markers stroke"
       d="M 57.703125,14.660156 C 55.833699,19.591167 53.8617,24.440462 51.523438,29.011719 L 58.439453,28.5 c 0.03476,-0.08628 0.06887,-0.173393 0.103516,-0.259766 z m -1.361328,18.810548 -7.626953,0.564453 c -2.297092,3.746015 -4.950386,7.222733 -8.132813,10.300782 L 41.261719,55.25 c 2.230104,-1.921739 4.214006,-4.027373 6.005859,-6.279297 L 46.748047,40.583984 52.992188,40.119141 53,40.248047 c 1.201035,-2.19279 2.305852,-4.459 3.341797,-6.777343 z"
       sodipodi:nodetypes="cccccccccccccc"
       transform="matrix(0.26458333,0,0,0.26458333,-6.0249555,-0.89826602)" />
    <path
       id="rect14-5"
       style="display:inline;opacity:1;fill:#ae8d0b;fill-opacity:1;fill-rule:evenodd;stroke-width:3.20326;stroke-dashoffset:88.7603;paint-order:fill markers stroke"
       d="m 48.957031,10.994141 c -0.967192,2.328779 -1.898588,4.683169 -2.794922,7.0625 0.717371,-0.316404 1.431542,-0.614796 2.076172,-0.666016 0.914139,-0.07264 2.134448,0.335188 3.263672,0.605469 l 0.287109,4.591797 -6.24414,0.464843 -0.175781,-2.880859 c -1.187797,3.194433 -2.367112,6.394866 -3.587891,9.560547 l 9.742188,-0.720703 c 2.338263,-4.571257 4.310261,-9.420552 6.179687,-14.351563 l -0.0957,-1.542968 -1.919922,-0.738282 c -2.310152,-0.88377 -4.537218,-1.372341 -6.730469,-1.384765 z m -0.242187,23.041015 -8.728516,0.644532 0.191406,3.15039 0.404297,6.50586 c 3.182427,-3.078049 5.835721,-6.554767 8.132813,-10.300782 z"
       transform="matrix(0.26458333,0,0,0.26458333,-6.0249555,-0.89826602)" />
    <path
       d="m 48.703125,10.982422 c -0.325002,0.0038 -0.648966,0.0192 -0.972656,0.04492 -2.589528,0.205757 -5.029632,1.12642 -7.41211,2.517578 l -1.697265,0.988281 0.951172,15.363281 2.208984,-0.164062 c 1.220779,-3.165681 2.400094,-6.366114 3.587891,-9.560547 L 45.263672,18.44531 c 0.296758,-0.124515 0.597899,-0.256116 0.898437,-0.388671 0.896334,-2.379331 1.82773,-4.733721 2.794922,-7.0625 -0.08441,-4.79e-4 -0.169598,-0.01269 -0.253906,-0.01172 z"
       style="display:inline;opacity:1;fill:#207823;fill-opacity:1;fill-rule:evenodd;stroke-width:3.20326;stroke-dashoffset:88.7603;paint-order:fill markers stroke"
       id="path68"
       transform="matrix(0.26458333,0,0,0.26458333,-6.0249555,-0.89826602)" />
  </g>
</svg>
