<?xml version="1.0" encoding="UTF-8" standalone="no"?>
<!-- Created with enve https://maurycyliebner.github.io -->

<svg xmlns="http://www.w3.org/2000/svg" viewBox="0 0 400 400" xmlns:xlink="http://www.w3.org/1999/xlink">
 <g transform="translate(7.2042 12.3309)">
  <g transform="translate(194.112 199.412)">
   <g>
    <animateTransform values="42.6;42.6;0;0" type="rotate" attributeName="transform" dur="1.33333s" fill="freeze" keyTimes="0;0.725;1;1" keySplines="0 0 1 1;0.390529 1 0.537797 0.994474;0.333333 0.333333 0.666667 0.666667" calcMode="spline"/>
    <g>
     <animateTransform values="8 1;8 1;12 1" type="scale" attributeName="transform" dur="1.33333s" fill="freeze" keyTimes="0;0.725;1" keySplines="0 0 1 1;0.206567 0.837368 0.409581 1" calcMode="spline"/>
     <g>
      <animateTransform values="1 8;1 8;1 12" type="scale" attributeName="transform" dur="1.33333s" fill="freeze" keyTimes="0;0.725;1" keySplines="0 0 1 1;0.203382 0.843809 0.454974 0.993575" calcMode="spline"/>
      <g transform="skewX(0) skewY(0)">
       <g transform="translate(-7.2042 -12.3309)">
        <g>
         <g transform="translate(53.2363 83.998)">
          <g transform="translate(-45.1758 -62.6718)">
           <g transform="rotate(0)">
            <g transform="scale(0.264583 0.264583)">
             <g transform="skewX(0) skewY(0)">
              <g transform="translate(-53.2363 -83.998)" opacity="1">
               <path stroke="none" fill="#205e78" d="M57.9375 78.9785C54.9633 80.4811 51.8103 81.6237 48.5352 82.5176C48.5352 82.5176 52.9258 89.0176 52.9258 89.0176C52.9258 89.0176 57.9375 78.9785 57.9375 78.9785Z" stroke-width="0.847529"/>
              </g>
             </g>
            </g>
           </g>
          </g>
         </g>
         <g transform="translate(52.7802 76.5459)">
          <g transform="translate(-44.8404 -57.1914)">
           <g transform="rotate(0)">
            <g transform="scale(0.264583 0.264583)">
             <g transform="skewX(0) skewY(0)">
              <g transform="translate(-52.7802 -76.5459)" opacity="1">
               <path stroke="none" fill="#3baeca" d="M61.2852 70.5742C58.7892 71.7549 53.4805 73.6094 53.4805 73.6094C53.4805 73.6094 53.4785 73.6094 53.4785 73.6094C53.4785 73.6094 52.0918 76.3867 52.0918 76.3867C52.0918 76.3867 50.7656 74.4219 50.7656 74.4219C48.6081 75.0321 46.4078 75.5733 44.1816 76.0742C44.1816 76.0742 48.5332 82.5176 48.5332 82.5176C51.809 81.6236 54.9627 80.4814 57.9375 78.9785C57.9375 78.9785 61.3789 72.084 61.3789 72.084C61.3789 72.084 61.2852 70.5742 61.2852 70.5742Z" stroke-width="0.847529"/>
              </g>
             </g>
            </g>
           </g>
          </g>
         </g>
         <g transform="translate(51.585 68.6992)">
          <g transform="translate(-43.9614 -51.4208)">
           <g transform="rotate(0)">
            <g transform="scale(0.264583 0.264583)">
             <g transform="skewX(0) skewY(0)">
              <g transform="translate(-51.585 -68.6992)" opacity="1">
               <path stroke="none" fill="#b12f9e" d="M60.709 61.3242C60.709 61.3242 56.5252 62.3102 54.4004 62.75C54.4004 62.75 54.8984 70.7695 54.8984 70.7695C54.8984 70.7695 53.4785 73.6094 53.4785 73.6094C56.1761 72.7511 58.7886 71.7551 61.2852 70.5742C61.2852 70.5742 60.709 61.3242 60.709 61.3242ZM48.1992 63.9941C46.0874 64.4087 43.9815 64.8328 41.8848 65.2734C41.8848 65.2734 42.3926 73.4258 42.3926 73.4258C42.3926 73.4258 44.1816 76.0742 44.1816 76.0742C46.4078 75.5733 48.6081 75.0321 50.7656 74.4219C50.7656 74.4219 48.6523 71.293 48.6523 71.293C48.6523 71.293 48.1992 63.9941 48.1992 63.9941Z" stroke-width="0.847529"/>
              </g>
             </g>
            </g>
           </g>
          </g>
         </g>
         <g transform="translate(51.0508 56.5674)">
          <g transform="translate(-43.5686 -42.4988)">
           <g transform="rotate(0)">
            <g transform="scale(0.264583 0.264583)">
             <g transform="skewX(0) skewY(0)">
              <g transform="translate(-51.0508 -56.5674)" opacity="1">
               <path stroke="none" fill="#323232" d="M59.8711 47.8633C59.8711 47.8633 59.8731 47.8613 59.8731 47.8613C59.8731 47.8613 59.8711 47.8633 59.8711 47.8633ZM59.8711 47.8633C59.8711 47.8633 59.5805 48.13 59.4277 48.2578C57.6433 49.7514 55.7417 51.0565 53.7441 52.207C53.7441 52.207 54.4004 62.75 54.4004 62.75C56.5252 62.3102 58.6274 61.8323 60.709 61.3242C60.709 61.3242 59.8711 47.8633 59.8711 47.8633ZM47.6523 55.1602C45.6258 55.9881 43.5322 56.7089 41.3926 57.3555C41.3926 57.3555 41.8848 65.2734 41.8848 65.2734C43.9815 64.8328 46.0874 64.4087 48.1992 63.9941C48.1992 63.9941 47.6523 55.1602 47.6523 55.1602Z" stroke-width="0.847529"/>
              </g>
             </g>
            </g>
           </g>
          </g>
         </g>
         <g transform="translate(50.5674 45.3164)">
          <g transform="translate(-43.2131 -34.2247)">
           <g transform="rotate(0)">
            <g transform="scale(0.264583 0.264583)">
             <g transform="skewX(0) skewY(0)">
              <g transform="translate(-50.5674 -45.3164)" opacity="1">
               <path stroke="none" fill="#4c5482" d="M58.9648 33.2773C58.9648 33.2773 56.3418 33.4707 56.3418 33.4707C55.3059 35.789 54.201 38.0553 53 40.248C53 40.248 53.7441 52.207 53.7441 52.207C55.7417 51.0565 57.6433 49.7514 59.4277 48.2578C59.5812 48.1294 59.7218 47.9915 59.873 47.8613C59.873 47.8613 58.9648 33.2773 58.9648 33.2773ZM47.2676 48.9707C45.4757 51.2226 43.4918 53.3283 41.2617 55.25C41.2617 55.25 41.3926 57.3555 41.3926 57.3555C43.5322 56.7089 45.6258 55.9881 47.6523 55.1602C47.6523 55.1602 47.2676 48.9707 47.2676 48.9707Z" stroke-width="0.847529"/>
              </g>
             </g>
            </g>
           </g>
          </g>
         </g>
         <g transform="translate(49.5625 34.9551)">
          <g transform="translate(-42.474 -26.6048)">
           <g transform="rotate(0)">
            <g transform="scale(0.264583 0.264583)">
             <g transform="skewX(0) skewY(0)">
              <g transform="translate(-49.5625 -34.9551)" opacity="1">
               <path stroke="none" fill="#ca3b3b" d="M57.7031 14.6602C55.8337 19.5912 53.8617 24.4405 51.5234 29.0117C51.5234 29.0117 58.4395 28.5 58.4395 28.5C58.4742 28.4137 58.5083 28.3266 58.543 28.2402C58.543 28.2402 57.7031 14.6602 57.7031 14.6602ZM56.3418 33.4707C56.3418 33.4707 48.7148 34.0352 48.7148 34.0352C46.4178 37.7812 43.7645 41.2579 40.582 44.3359C40.582 44.3359 41.2617 55.25 41.2617 55.25C43.4918 53.3283 45.4757 51.2226 47.2676 48.9707C47.2676 48.9707 46.748 40.584 46.748 40.584C46.748 40.584 52.9922 40.1191 52.9922 40.1191C52.9922 40.1191 53 40.248 53 40.248C54.201 38.0553 55.3059 35.789 56.3418 33.4707Z" stroke-width="0.847529"/>
              </g>
             </g>
            </g>
           </g>
          </g>
         </g>
         <g transform="translate(48.8447 27.665)">
          <g transform="translate(-41.9462 -21.2436)">
           <g transform="rotate(0)">
            <g transform="scale(0.264583 0.264583)">
             <g transform="skewX(0) skewY(0)">
              <g transform="translate(-48.8447 -27.665)" opacity="1">
               <path stroke="none" fill="#ae8d0b" d="M48.957 10.9941C47.9898 13.3229 47.0584 15.6773 46.1621 18.0566C46.8795 17.7402 47.5937 17.4418 48.2383 17.3906C49.1524 17.318 50.3727 17.7258 51.502 17.9961C51.502 17.9961 51.7891 22.5879 51.7891 22.5879C51.7891 22.5879 45.5449 23.0527 45.5449 23.0527C45.5449 23.0527 45.3691 20.1719 45.3691 20.1719C44.1813 23.3663 43.002 26.5667 41.7813 29.7324C41.7813 29.7324 51.5234 29.0117 51.5234 29.0117C53.8617 24.4405 55.8337 19.5912 57.7031 14.6602C57.7031 14.6602 57.6074 13.1172 57.6074 13.1172C57.6074 13.1172 55.6875 12.3789 55.6875 12.3789C53.3773 11.4951 51.1503 11.0066 48.957 10.9941C48.957 10.9941 48.957 10.9941 48.957 10.9941ZM48.7148 34.0352C48.7148 34.0352 39.9863 34.6797 39.9863 34.6797C39.9863 34.6797 40.1777 37.8301 40.1777 37.8301C40.1777 37.8301 40.582 44.3359 40.582 44.3359C43.7645 41.2579 46.4178 37.7812 48.7148 34.0352Z" stroke-width="0.847529"/>
              </g>
             </g>
            </g>
           </g>
          </g>
         </g>
         <g transform="translate(43.7891 20.4394)">
          <g transform="translate(-38.2282 -15.9298)">
           <g transform="rotate(0)">
            <g transform="scale(0.264583 0.264583)">
             <g transform="skewX(0) skewY(0)">
              <g transform="translate(-43.7891 -20.4394)" opacity="1">
               <path stroke="none" fill="#207823" d="M48.7031 10.9824C48.3781 10.9862 48.0542 11.0016 47.7305 11.0273C45.1409 11.2331 42.7008 12.1538 40.3184 13.5449C40.3184 13.5449 38.6211 14.5332 38.6211 14.5332C38.6211 14.5332 39.5723 29.8965 39.5723 29.8965C39.5723 29.8965 41.7813 29.7324 41.7813 29.7324C43.002 26.5667 44.1813 23.3663 45.3691 20.1719C45.3691 20.1719 45.2637 18.4453 45.2637 18.4453C45.5604 18.3208 45.8616 18.1892 46.1621 18.0566C47.0584 15.6773 47.9898 13.3229 48.957 10.9941C48.8726 10.9937 48.7874 10.9814 48.7031 10.9824C48.7031 10.9824 48.7031 10.9824 48.7031 10.9824Z" stroke-width="0.847529"/>
              </g>
             </g>
            </g>
           </g>
          </g>
         </g>
        </g>
        <animate values="0;0;0.91;0.91" attributeName="opacity" dur="1.33333s" fill="freeze" keyTimes="0;0.725;0.9375;1" keySplines="0 0 1 1;0 0 1 1;0 0 1 1" calcMode="spline"/>
       </g>
      </g>
     </g>
    </g>
   </g>
  </g>
 </g>
 <g transform="translate(199.402 204.517)">
  <g transform="translate(0 0)">
   <g>
    <animateTransform values="0;0;-400;-400;-360;-366.4;-366.4" type="rotate" attributeName="transform" dur="1.33333s" fill="freeze" keyTimes="0;0;0.75;0.75;0.7625;0.9375;1" keySplines="0 0 1 1;0.106843 0.375236 0.999955 0.999963;0.333333 0.333333 0.666667 0.666667;0.000707378 0 1 1;0 0 0.286676 0.99211;0 0 1 1" calcMode="spline"/>
    <g>
     <animateTransform values="1 1;1 1;0.5 1;0.5 1" type="scale" attributeName="transform" dur="1.33333s" fill="freeze" keyTimes="0;0.75;0.7625;1" keySplines="0 0 1 1;0 0 1 1;0 0 1 1" calcMode="spline"/>
     <g>
      <animateTransform values="1 1;1 1;1 0.5;1 0.5" type="scale" attributeName="transform" dur="1.33333s" fill="freeze" keyTimes="0;0.75;0.7625;1" keySplines="0 0 1 1;0 0 1 1;0 0 1 1" calcMode="spline"/>
      <g transform="skewX(0) skewY(0)">
       <g transform="translate(-199.402 -204.517)">
        <g>
         <g transform="translate(199.252 195.633)">
          <g transform="translate(4.53436 9.06872)">
           <g transform="rotate(0)">
            <g transform="scale(1 1)">
             <g transform="skewX(0) skewY(0)">
              <g transform="translate(-199.252 -195.633)" opacity="1">
               <g>
                <g transform="translate(56.3509 0)">
                 <g transform="translate(0 -124.228)">
                  <g>
                   <animateTransform values="138.006 0;138.006 0;198.803 0;198.803 0;-138.456 0;-138.456 0" type="translate" attributeName="transform" dur="1.33333s" fill="freeze" keyTimes="0;0.375;0.75;0.7625;0.9375;1" keySplines="0 0 1 1;0.667295 0.0166099 1 1;0 0.333333 1 0.666667;0 0 0.289175 0.980454;0 0 1 1" calcMode="spline"/>
                   <g>
                    <animateTransform values="0 318.289;0 318.289;0 195.909;0 195.909;0 205.277;0 205.277" type="translate" attributeName="transform" dur="1.33333s" fill="freeze" keyTimes="0;0.375;0.75;0.7625;0.9375;1" keySplines="0 0 1 1;0.666128 0 1 1;0 0.333333 1 0.666667;0 0 0.642857 1;0 0 1 1" calcMode="spline"/>
                    <g transform="rotate(0)">
                     <g transform="scale(1 1)">
                      <g transform="scale(1 1)">
                       <g transform="skewX(0) skewY(0)">
                        <g transform="translate(-56.3509 0)" opacity="1">
                         <g transform="translate(0 124.228)">
                          <ellipse cy="0" ry="20.9264" cx="0" stroke="none" fill="#205e78" stroke-width="1" rx="20.9264"/>
                         </g>
                        </g>
                       </g>
                      </g>
                     </g>
                    </g>
                   </g>
                  </g>
                 </g>
                </g>
                <g transform="translate(-52.5088 0)">
                 <g transform="translate(0 -125.509)">
                  <g>
                   <animateTransform values="244.194 0;244.194 0;200.541 0;200.541 0;-55.5266 0;-55.5266 0" type="translate" attributeName="transform" dur="1.33333s" fill="freeze" keyTimes="0;0.375;0.75;0.7625;0.9375;1" keySplines="0 0 1 1;0.664962 0.29388 1 1;0 0.333333 1 0.666667;0 0 0.287925 0.987128;0 0 1 1" calcMode="spline"/>
                   <g>
                    <animateTransform values="0 315.337;0 315.337;0 315.337;0 196.662;0 196.662;0 462.098;0 462.098" type="translate" attributeName="transform" dur="1.33333s" fill="freeze" keyTimes="0;0.375;0.378895;0.75;0.7625;0.9375;1" keySplines="0 0 1 1;0.334196 0.667831 0.667529 1;0.663812 0 1 1;0 0.333333 1 0.666667;0 0 0.279177 0.993791;0 0 1 1" calcMode="spline"/>
                    <g transform="rotate(0)">
                     <g transform="scale(1 1)">
                      <g transform="scale(1 1)">
                       <g transform="skewX(0) skewY(0)">
                        <g transform="translate(52.5088 0)" opacity="1">
                         <g transform="translate(0 125.509)">
                          <ellipse cy="0" ry="20.9264" cx="0" stroke="none" fill="#3baeca" stroke-width="1" rx="20.9264"/>
                         </g>
                        </g>
                       </g>
                      </g>
                     </g>
                    </g>
                   </g>
                  </g>
                 </g>
                </g>
                <g transform="translate(-113.983 0)">
                 <g transform="translate(0 -29.4562)">
                  <g>
                   <animateTransform values="317.471 0;317.471 0;198.696 0;198.696 0;220.556 0;220.556 0" type="translate" attributeName="transform" dur="1.33333s" fill="freeze" keyTimes="0;0.375;0.75;0.7625;0.9375;1" keySplines="0 0 1 1;0.666128 0.00125696 1 1;0 0.333333 1 0.666667;0 0 0.642857 1;0 0 1 1" calcMode="spline"/>
                   <g>
                    <animateTransform values="0 239.829;0 239.829;0 195.601;0 195.601;0 532.861;0 532.861" type="translate" attributeName="transform" dur="1.33333s" fill="freeze" keyTimes="0;0.375;0.75;0.7625;0.9375;1" keySplines="0 0 1 1;0.667877 0.0678849 1 1;0 0.333333 1 0.666667;0 0 0.287925 0.995113;0 0 1 1" calcMode="spline"/>
                    <g transform="rotate(0)">
                     <g transform="scale(1 1)">
                      <g transform="scale(1 1)">
                       <g transform="skewX(0) skewY(0)">
                        <g transform="translate(113.983 0)" opacity="1">
                         <g transform="translate(0 29.4562)">
                          <ellipse cy="0" ry="20.9264" cx="0" stroke="none" fill="#b12f9e" stroke-width="1" rx="20.9264"/>
                         </g>
                        </g>
                       </g>
                      </g>
                     </g>
                    </g>
                   </g>
                  </g>
                 </g>
                </g>
                <g transform="translate(-106.298 0)">
                 <g transform="translate(0 55.0702)">
                  <g>
                   <animateTransform values="316.759 0;316.759 0;200.767 0;200.767 0;478.694 0;478.694 0" type="translate" attributeName="transform" dur="1.33333s" fill="freeze" keyTimes="0;0.375;0.75;0.7625;0.9375;1" keySplines="0 0 1 1;0.667876 0.00795414 1 1;0 0.333333 1 0.666667;0 0 0.286676 0.98814;0 0 1 1" calcMode="spline"/>
                   <g>
                    <animateTransform values="0 154.71;0 154.71;0 154.088;0 197.463;0 197.463;0 462.899;0 462.899" type="translate" attributeName="transform" dur="1.33333s" fill="freeze" keyTimes="0;0.375;0.421609;0.75;0.7625;0.9375;1" keySplines="0 0 1 1;0.344293 0.681307 0.677633 1;0.663985 0 1 1;0 0.333333 1 0.666667;0 0 0.286676 0.993791;0 0 1 1" calcMode="spline"/>
                    <g transform="rotate(0)">
                     <g transform="scale(1 1)">
                      <g transform="scale(1 1)">
                       <g transform="skewX(0) skewY(0)">
                        <g transform="translate(106.298 0)" opacity="1">
                         <g transform="translate(0 -55.0702)">
                          <ellipse cy="0" ry="20.9264" cx="0" stroke="none" fill="#323232" stroke-width="1" rx="20.9264"/>
                         </g>
                        </g>
                       </g>
                      </g>
                     </g>
                    </g>
                   </g>
                  </g>
                 </g>
                </g>
                <g transform="translate(-43.5439 0)">
                 <g transform="translate(0 144.719)">
                  <g>
                   <animateTransform values="247.503 0;247.503 0;198.898 0;198.898 0;545.526 0;545.526 0" type="translate" attributeName="transform" dur="1.33333s" fill="freeze" keyTimes="0;0.375;0.75;0.7625;0.9375;1" keySplines="0 0 1 1;0.667878 0.0522637 1 1;0 0.333333 1 0.666667;0 0 0.296674 0.985737;0 0 1 1" calcMode="spline"/>
                   <g>
                    <animateTransform values="0 72.6066;0 72.6066;0 200.424;0 200.424;0 181.687;0 181.687" type="translate" attributeName="transform" dur="1.33333s" fill="freeze" keyTimes="0;0.375;0.75;0.7625;0.9375;1" keySplines="0 0 1 1;0.66671 0.0139177 1 1;0 0.333333 1 0.666667;0 0 0.642857 1;0 0 1 1" calcMode="spline"/>
                    <g transform="rotate(0)">
                     <g transform="scale(1 1)">
                      <g transform="scale(1 1)">
                       <g transform="skewX(0) skewY(0)">
                        <g transform="translate(43.5439 0)" opacity="1">
                         <g transform="translate(0 -144.719)">
                          <ellipse cy="0" ry="20.9264" cx="0" stroke="none" fill="#4c5482" stroke-width="1" rx="20.9264"/>
                         </g>
                        </g>
                       </g>
                      </g>
                     </g>
                    </g>
                   </g>
                  </g>
                 </g>
                </g>
                <g transform="translate(49.9474 0)">
                 <g transform="translate(0 144.719)">
                  <g>
                   <animateTransform values="149.509 0;149.509 0;202.284 0;202.284 0;473.965 0;473.965 0" type="translate" attributeName="transform" dur="1.33333s" fill="freeze" keyTimes="0;0.375;0.75;0.7625;0.9375;1" keySplines="0 0 1 1;0.667292 0.00772384 1 1;0 0.333333 1 0.666667;0 0 0.286676 0.987868;0 0 1 1" calcMode="spline"/>
                   <g>
                    <animateTransform values="0 73.0171;0 73.0171;0 194.917;0 194.917;0 -83.0101;0 -83.0101" type="translate" attributeName="transform" dur="1.33333s" fill="freeze" keyTimes="0;0.375;0.75;0.7625;0.9375;1" keySplines="0 0 1 1;0.665544 0.0034709 1 1;0 0.333333 1 0.666667;0 0 0.285426 0.940702;0 0 1 1" calcMode="spline"/>
                    <g transform="rotate(0)">
                     <g transform="scale(1 1)">
                      <g transform="scale(1 1)">
                       <g transform="skewX(0) skewY(0)">
                        <g transform="translate(-49.9474 0)" opacity="1">
                         <g transform="translate(0 -144.719)">
                          <ellipse cy="0" ry="20.9264" cx="0" stroke="none" fill="#ca3b3b" stroke-width="1" rx="20.9264"/>
                         </g>
                        </g>
                       </g>
                      </g>
                     </g>
                    </g>
                   </g>
                  </g>
                 </g>
                </g>
                <g transform="translate(122.948 0)">
                 <g transform="translate(0 -33.2983)">
                  <g>
                   <animateTransform values="72.2651 0;72.2651 0;203.204 0;203.204 0;178.222 0;178.222 0" type="translate" attributeName="transform" dur="1.33333s" fill="freeze" keyTimes="0;0.375;0.75;0.7625;0.9375;1" keySplines="0 0 1 1;0.66613 0.0254699 1 1;0 0.333333 1 0.666667;0 0 0.642857 1;0 0 1 1" calcMode="spline"/>
                   <g>
                    <animateTransform values="0 237.918;0 237.918;0 196.363;0 196.363;0 -159.634;0 -159.634" type="translate" attributeName="transform" dur="1.33333s" fill="freeze" keyTimes="0;0.375;0.75;0.7625;0.9375;1" keySplines="0 0 1 1;0.666713 0.0970768 1 1;0 0.333333 1 0.666667;0 0 0.290425 0.962965;0 0 1 1" calcMode="spline"/>
                    <g transform="rotate(0)">
                     <g transform="scale(1 1)">
                      <g transform="scale(1 1)">
                       <g transform="skewX(0) skewY(0)">
                        <g transform="translate(-122.948 0)" opacity="1">
                         <g transform="translate(0 33.2983)">
                          <ellipse cy="0" ry="20.9264" cx="0" stroke="none" fill="#ae8d0b" stroke-width="1" rx="20.9264"/>
                         </g>
                        </g>
                       </g>
                      </g>
                     </g>
                    </g>
                   </g>
                  </g>
                 </g>
                </g>
                <g transform="translate(117.825 0)">
                 <g transform="translate(0 51.2281)">
                  <g>
                   <animateTransform values="72.4969 0;72.4969 0;200.665 0;200.665 0;-90.017 0;-89.7534 0;-89.7534 0" type="translate" attributeName="transform" dur="1.33333s" fill="freeze" keyTimes="0;0.375;0.75;0.7625;0.929696;0.9375;1" keySplines="0 0 1 1;0.666712 0.0199089 1 1;0 0.333333 1 0.666667;0 0 0.292451 1;0.329132 0 0.662456 0.328577;0 0 1 1" calcMode="spline"/>
                   <g>
                    <animateTransform values="0 144.607;0 144.607;0 144.607;0 201.585;0 201.585;0 -85.7103;0 -85.7103" type="translate" attributeName="transform" dur="1.33333s" fill="freeze" keyTimes="0;0.375;0.377802;0.75;0.7625;0.9375;1" keySplines="0 0 1 1;0.333954 0.667502 0.667287 1;0.66439 4.98801e-16 1 1;0 0.333333 1 0.666667;0 0 0.287925 0.971318;0 0 1 1" calcMode="spline"/>
                    <g transform="rotate(0)">
                     <g transform="scale(1 1)">
                      <g transform="scale(1 1)">
                       <g transform="skewX(0) skewY(0)">
                        <g transform="translate(-117.825 0)" opacity="1">
                         <g transform="translate(0 -51.2281)">
                          <ellipse cy="0" ry="20.9264" cx="0" stroke="none" fill="#207823" stroke-width="1" rx="20.9264"/>
                         </g>
                        </g>
                       </g>
                      </g>
                     </g>
                    </g>
                   </g>
                  </g>
                 </g>
                </g>
               </g>
              </g>
             </g>
            </g>
           </g>
          </g>
         </g>
         <g transform="translate(197.178 202.066)">
          <g transform="translate(3.58508 8.68104)">
           <g transform="rotate(8.7)">
            <g transform="scale(1 1)">
             <g transform="skewX(0) skewY(0)">
              <g transform="translate(-197.178 -202.066)">
               <g>
                <g transform="translate(56.3509 -124.228)">
                 <g transform="translate(138.006 318.289)">
                  <g transform="rotate(0)">
                   <g transform="scale(1 1)">
                    <g transform="skewX(0) skewY(0)">
                     <g transform="translate(-56.3509 124.228)" opacity="1">
                      <ellipse cy="0" ry="20.9264" cx="0" stroke="none" fill="#205e78" stroke-width="1" rx="20.9264"/>
                     </g>
                    </g>
                   </g>
                  </g>
                 </g>
                </g>
                <g transform="translate(122.948 -33.2983)">
                 <g transform="translate(72.2651 237.918)">
                  <g transform="rotate(0)">
                   <g transform="scale(1 1)">
                    <g transform="skewX(0) skewY(0)">
                     <g transform="translate(-122.948 33.2983)" opacity="1">
                      <ellipse cy="0" ry="20.9264" cx="0" stroke="none" fill="#ae8d0b" stroke-width="1" rx="20.9264"/>
                     </g>
                    </g>
                   </g>
                  </g>
                 </g>
                </g>
                <g transform="translate(-43.5439 144.719)">
                 <g transform="translate(247.503 72.6066)">
                  <g transform="rotate(0)">
                   <g transform="scale(1 1)">
                    <g transform="skewX(0) skewY(0)">
                     <g transform="translate(43.5439 -144.719)" opacity="1">
                      <ellipse cy="0" ry="20.9264" cx="0" stroke="none" fill="#4c5482" stroke-width="1" rx="20.9264"/>
                     </g>
                    </g>
                   </g>
                  </g>
                 </g>
                </g>
                <g transform="translate(-52.5088 -125.509)">
                 <g transform="translate(244.194 315.337)">
                  <g transform="rotate(0)">
                   <g transform="scale(1 1)">
                    <g transform="skewX(0) skewY(0)">
                     <g transform="translate(52.5088 125.509)" opacity="1">
                      <ellipse cy="0" ry="20.9264" cx="0" stroke="none" fill="#3baeca" stroke-width="1" rx="20.9264"/>
                     </g>
                    </g>
                   </g>
                  </g>
                 </g>
                </g>
                <g transform="translate(-113.983 -29.4562)">
                 <g transform="translate(317.471 239.829)">
                  <g transform="rotate(0)">
                   <g transform="scale(1 1)">
                    <g transform="skewX(0) skewY(0)">
                     <g transform="translate(113.983 29.4562)" opacity="1">
                      <ellipse cy="0" ry="20.9264" cx="0" stroke="none" fill="#b12f9e" stroke-width="1" rx="20.9264"/>
                     </g>
                    </g>
                   </g>
                  </g>
                 </g>
                </g>
                <g transform="translate(49.9474 144.719)">
                 <g transform="translate(149.509 73.0171)">
                  <g transform="rotate(0)">
                   <g transform="scale(1 1)">
                    <g transform="skewX(0) skewY(0)">
                     <g transform="translate(-49.9474 -144.719)" opacity="1">
                      <ellipse cy="0" ry="20.9264" cx="0" stroke="none" fill="#ca3b3b" stroke-width="1" rx="20.9264"/>
                     </g>
                    </g>
                   </g>
                  </g>
                 </g>
                </g>
                <g transform="translate(117.825 51.2281)">
                 <g transform="translate(72.4969 144.607)">
                  <g transform="rotate(0)">
                   <g transform="scale(1 1)">
                    <g transform="skewX(0) skewY(0)">
                     <g transform="translate(-117.825 -51.2281)" opacity="1">
                      <ellipse cy="0" ry="20.9264" cx="0" stroke="none" fill="#207823" stroke-width="1" rx="20.9264"/>
                     </g>
                    </g>
                   </g>
                  </g>
                 </g>
                </g>
                <g transform="translate(-106.298 55.0702)">
                 <g transform="translate(316.759 154.71)">
                  <g transform="rotate(0)">
                   <g transform="scale(1 1)">
                    <g transform="skewX(0) skewY(0)">
                     <g transform="translate(106.298 -55.0702)" opacity="1">
                      <ellipse cy="0" ry="20.9264" cx="0" stroke="none" fill="#323232" stroke-width="1" rx="20.9264"/>
                     </g>
                    </g>
                   </g>
                  </g>
                 </g>
                </g>
               </g>
               <animate values="0.695;0.695;0;0" attributeName="opacity" dur="1.33333s" fill="freeze" keyTimes="0;0.375;0.4625;1" keySplines="0 0 1 1;0 0 1 1;0 0 1 1" calcMode="spline"/>
              </g>
             </g>
            </g>
           </g>
          </g>
         </g>
         <g transform="translate(199.252 195.633)">
          <g transform="translate(4.53436 9.06872)">
           <g transform="rotate(15.8)">
            <g transform="scale(1 1)">
             <g transform="skewX(0) skewY(0)">
              <g transform="translate(-199.252 -195.633)">
               <g>
                <g transform="translate(56.3509 -124.228)">
                 <g transform="translate(138.006 318.289)">
                  <g transform="rotate(0)">
                   <g transform="scale(1 1)">
                    <g transform="skewX(0) skewY(0)">
                     <g transform="translate(-56.3509 124.228)" opacity="1">
                      <ellipse cy="0" ry="20.9264" cx="0" stroke="none" fill="#205e78" stroke-width="1" rx="20.9264"/>
                     </g>
                    </g>
                   </g>
                  </g>
                 </g>
                </g>
                <g transform="translate(122.948 -33.2983)">
                 <g transform="translate(72.2651 237.918)">
                  <g transform="rotate(0)">
                   <g transform="scale(1 1)">
                    <g transform="skewX(0) skewY(0)">
                     <g transform="translate(-122.948 33.2983)" opacity="1">
                      <ellipse cy="0" ry="20.9264" cx="0" stroke="none" fill="#ae8d0b" stroke-width="1" rx="20.9264"/>
                     </g>
                    </g>
                   </g>
                  </g>
                 </g>
                </g>
                <g transform="translate(-43.5439 144.719)">
                 <g transform="translate(247.503 72.6066)">
                  <g transform="rotate(0)">
                   <g transform="scale(1 1)">
                    <g transform="skewX(0) skewY(0)">
                     <g transform="translate(43.5439 -144.719)" opacity="1">
                      <ellipse cy="0" ry="20.9264" cx="0" stroke="none" fill="#4c5482" stroke-width="1" rx="20.9264"/>
                     </g>
                    </g>
                   </g>
                  </g>
                 </g>
                </g>
                <g transform="translate(-52.5088 -125.509)">
                 <g transform="translate(244.194 315.337)">
                  <g transform="rotate(0)">
                   <g transform="scale(1 1)">
                    <g transform="skewX(0) skewY(0)">
                     <g transform="translate(52.5088 125.509)" opacity="1">
                      <ellipse cy="0" ry="20.9264" cx="0" stroke="none" fill="#3baeca" stroke-width="1" rx="20.9264"/>
                     </g>
                    </g>
                   </g>
                  </g>
                 </g>
                </g>
                <g transform="translate(-113.983 -29.4562)">
                 <g transform="translate(317.471 239.829)">
                  <g transform="rotate(0)">
                   <g transform="scale(1 1)">
                    <g transform="skewX(0) skewY(0)">
                     <g transform="translate(113.983 29.4562)" opacity="1">
                      <ellipse cy="0" ry="20.9264" cx="0" stroke="none" fill="#b12f9e" stroke-width="1" rx="20.9264"/>
                     </g>
                    </g>
                   </g>
                  </g>
                 </g>
                </g>
                <g transform="translate(49.9474 144.719)">
                 <g transform="translate(149.509 73.0171)">
                  <g transform="rotate(0)">
                   <g transform="scale(1 1)">
                    <g transform="skewX(0) skewY(0)">
                     <g transform="translate(-49.9474 -144.719)" opacity="1">
                      <ellipse cy="0" ry="20.9264" cx="0" stroke="none" fill="#ca3b3b" stroke-width="1" rx="20.9264"/>
                     </g>
                    </g>
                   </g>
                  </g>
                 </g>
                </g>
                <g transform="translate(117.825 51.2281)">
                 <g transform="translate(72.4969 144.607)">
                  <g transform="rotate(0)">
                   <g transform="scale(1 1)">
                    <g transform="skewX(0) skewY(0)">
                     <g transform="translate(-117.825 -51.2281)" opacity="1">
                      <ellipse cy="0" ry="20.9264" cx="0" stroke="none" fill="#207823" stroke-width="1" rx="20.9264"/>
                     </g>
                    </g>
                   </g>
                  </g>
                 </g>
                </g>
                <g transform="translate(-106.298 55.0702)">
                 <g transform="translate(316.759 154.71)">
                  <g transform="rotate(0)">
                   <g transform="scale(1 1)">
                    <g transform="skewX(0) skewY(0)">
                     <g transform="translate(106.298 -55.0702)" opacity="1">
                      <ellipse cy="0" ry="20.9264" cx="0" stroke="none" fill="#323232" stroke-width="1" rx="20.9264"/>
                     </g>
                    </g>
                   </g>
                  </g>
                 </g>
                </g>
               </g>
               <animate values="0.19;0.19;0;0" attributeName="opacity" dur="1.33333s" fill="freeze" keyTimes="0;0.375;0.4625;1" keySplines="0 0 1 1;0 0 1 1;0 0 1 1" calcMode="spline"/>
              </g>
             </g>
            </g>
           </g>
          </g>
         </g>
        </g>
        <animate values="0;0;1;1;0;0;1;0;0" attributeName="opacity" dur="1.33333s" fill="freeze" keyTimes="0;0;0.3125;0.5625;0.75;0.7625;0.7875;0.9375;1" keySplines="0 0 1 1;0 0 1 1;0 0.333333 1 0.666667;0 0 1 1;0 0.333333 1 0.666667;0 0 1 1;0 0 1 1;0 0 1 1" calcMode="spline"/>
       </g>
      </g>
     </g>
    </g>
   </g>
  </g>
 </g>
 <defs>
  <linearGradient id="0x000002d0a2d9b700">
   <stop stop-color="#080827" offset="0"/>
   <stop stop-color="#553475" offset="1"/>
  </linearGradient>
  <linearGradient id="0x000002d0a2d98730">
   <stop stop-color="#080827" offset="0"/>
   <stop stop-color="#553475" offset="1"/>
  </linearGradient>
 </defs>
</svg>
