<?xml version="1.0" encoding="UTF-8" standalone="no"?>
<!-- Created with Inkscape (http://www.inkscape.org/) -->

<svg
   width="256.70215mm"
   height="94.63456mm"
   viewBox="0 0 256.70215 94.63456"
   version="1.1"
   id="svg1"
   inkscape:version="1.3.2 (091e20e, 2023-11-25, custom)"
   sodipodi:docname="fluid.svg"
   xmlns:inkscape="http://www.inkscape.org/namespaces/inkscape"
   xmlns:sodipodi="http://sodipodi.sourceforge.net/DTD/sodipodi-0.dtd"
   xmlns:xlink="http://www.w3.org/1999/xlink"
   xmlns="http://www.w3.org/2000/svg"
   xmlns:svg="http://www.w3.org/2000/svg">
  <sodipodi:namedview
     id="namedview1"
     pagecolor="#ffffff"
     bordercolor="#000000"
     borderopacity="0.25"
     inkscape:showpageshadow="2"
     inkscape:pageopacity="0.0"
     inkscape:pagecheckerboard="0"
     inkscape:deskcolor="#d1d1d1"
     inkscape:document-units="mm"
     inkscape:zoom="2.8284271"
     inkscape:cx="370.87751"
     inkscape:cy="113.31386"
     inkscape:window-width="2560"
     inkscape:window-height="1369"
     inkscape:window-x="-8"
     inkscape:window-y="-8"
     inkscape:window-maximized="1"
     inkscape:current-layer="layer1" />
  <defs
     id="defs1">
    <linearGradient
       id="linearGradient5"
       inkscape:collect="always">
      <stop
         style="stop-color:#ff3535;stop-opacity:1;"
         offset="0"
         id="stop5" />
      <stop
         style="stop-color:#ffe659;stop-opacity:1;"
         offset="0.18264841"
         id="stop7" />
      <stop
         style="stop-color:#b2ff0c;stop-opacity:1;"
         offset="0.38242009"
         id="stop8" />
      <stop
         style="stop-color:#30f7ff;stop-opacity:1;"
         offset="0.59417808"
         id="stop9" />
      <stop
         style="stop-color:#4571ff;stop-opacity:1;"
         offset="0.79763764"
         id="stop10" />
      <stop
         style="stop-color:#ff56c6;stop-opacity:1;"
         offset="1"
         id="stop11" />
    </linearGradient>
    <linearGradient
       inkscape:collect="always"
       xlink:href="#linearGradient5"
       id="linearGradient6"
       x1="21.774937"
       y1="127.73785"
       x2="137.96359"
       y2="156.13728"
       gradientUnits="userSpaceOnUse"
       spreadMethod="reflect"
       gradientTransform="matrix(1.0441233,0,0,0.80616386,-3.882569,7.1881806)" />
  </defs>
  <g
     inkscape:label="Layer 1"
     inkscape:groupmode="layer"
     id="layer1"
     transform="translate(-18.853202,-62.784788)">
    <path
       id="rect1"
       style="opacity:1;fill:url(#linearGradient6);stroke-width:0.243126"
       d="M 111.38763,77.286952 C 102.62301,77.216525 101.72224,62.795574 92.957152,62.806056 84.21861,62.816412 83.379058,77.269884 74.640534,77.286952 65.845562,77.303524 64.905172,62.76761 56.110212,62.784803 47.200244,62.801374 46.344219,77.543679 37.434226,77.549831 28.585708,77.556046 18.853202,62.912296 18.853202,62.912296 V 157.41935 H 275.55536 V 64.751147 c 0,0 -8.29186,12.530607 -15.85676,12.535805 -8.64208,0.0062 -9.50564,-14.301888 -18.14774,-14.295922 -8.87337,0.0062 -9.726,14.698081 -18.59937,14.704192 -8.82843,0.0062 -9.71051,-14.610276 -18.53894,-14.604207 -8.81308,0.0062 -9.66003,14.59818 -18.47312,14.604207 -8.84826,0.0062 -9.73231,-14.602612 -18.58047,-14.637121 -8.68785,-0.03397 -9.74318,14.262677 -18.43103,14.228851 -8.74055,-0.03397 -9.61481,-14.384163 -18.35494,-14.458816 -8.93607,-0.07623 -10.24922,14.530694 -19.18536,14.458816 z"
       sodipodi:nodetypes="sssssccccsssssssss" />
  </g>
</svg>
